<?xml version="1.0" encoding="utf-8"?>
<!-- Generator: Adobe Illustrator 26.4.1, SVG Export Plug-In . SVG Version: 6.00 Build 0)  -->
<svg version="1.1" xmlns="http://www.w3.org/2000/svg" xmlns:xlink="http://www.w3.org/1999/xlink" x="0px" y="0px"
	 viewBox="0 0 547.6 364.8" style="enable-background:new 0 0 547.6 364.8;" xml:space="preserve">
<style type="text/css">
	.st0{fill:#F2F2F2;}
	.st1{opacity:5.000000e-02;fill:#F2F2F2;}
	.st2{display:none;}
	.st3{display:inline;fill:none;stroke:#000000;stroke-miterlimit:10;}
	.st4{display:inline;fill:none;}
	.st5{display:inline;}
	.st6{fill:#42468E;}
	.st7{opacity:0.1;}
	.st8{fill:none;stroke:#000000;stroke-width:0.75;}
	.st9{fill:#D9D9D9;}
</style>
<g id="Layer_1">
	<polyline class="st0" points="252.4,24.1 252.4,24.1 312,63.8 299.2,85.5 293.1,95.2 287,105 280.6,116.6 277.4,121.8 271.2,121.4 
		236.2,102.1 226.4,97.9 221.3,120.3 220,119.9 218.2,119.3 210.3,116.6 190.2,109.9 188.2,116.3 132.5,93.3 114.1,86.1 112.9,85.6 
		107.4,83.4 109.2,36.8 109.8,14.6 109.9,8 	"/>
	<polygon class="st1" points="374.6,43 375.4,40.9 376.3,38.9 377.2,36.9 392.1,43.4 391.2,45.4 390.3,47.4 389.4,49.4 	"/>
</g>
<g id="Layer_5" class="st2">
	<rect x="7.3" y="8" class="st3" width="536.7" height="350.5"/>
	<path id="SVGID_x5F_1_x5F_" class="st4" d="M519.6,245.8l-106.9,2.1l-8,0.1l-54.9,1.1l-6.6-0.5"/>
	<text class="st5">	<textPath  xlink:href="#SVGID_x5F_1_x5F_" startOffset="14.8804%">
<tspan  class="st6" style="font-family:'MyriadPro-Regular'; font-size:4px; letter-spacing:300;">MAGLE STORA KYRKOGATA</tspan>	</textPath>
</text>
</g>
<g id="Layer_4">
	<g id="huset">
		<polygon class="st6" points="384.6,252.1 402,252.1 402.4,264 392.3,264 392.7,273.4 385.2,274.3 		"/>
	</g>
</g>
<g id="Layer_3" class="st7">
	<polyline class="st8" points="101.5,229.4 102,239.7 105,272.3 110.6,321.6 	"/>
	<polyline class="st8" points="107.4,83.4 107.3,89.9 105.9,128.9 105.6,137.4 	"/>
	<polyline class="st8" points="110.6,321.6 108.8,334.3 106,343.5 	"/>
	<polyline class="st8" points="299.2,85.5 293.1,95.2 287,105 280.6,116.6 	"/>
	<line class="st8" x1="105.6" y1="137.4" x2="105" y2="153"/>
	<polyline class="st8" points="299.2,85.5 345,113.1 366.7,123.3 392.9,135.6 409.9,142.5 434.6,153.8 	"/>
	<polyline class="st8" points="16.7,131.3 23.3,132.9 95.5,150.6 105,153 	"/>
	<polyline class="st8" points="373.7,172 373.4,174.9 375.3,177.6 410.6,194.8 	"/>
	<polyline class="st8" points="253.6,291.5 253.8,281.3 253.8,279.1 	"/>
	<line class="st8" x1="247.7" y1="357.6" x2="248.4" y2="352.7"/>
	<polyline class="st8" points="455.3,297.8 408.9,303.7 401.9,305.3 354.1,316.1 	"/>
	<line class="st8" x1="319" y1="15.5" x2="313.9" y2="28.6"/>
	<polyline class="st8" points="247.8,299.2 248.4,298.7 249.7,298.2 253.9,297.4 336.1,284.3 347.4,282.4 	"/>
	<polyline class="st8" points="109.9,8 109.8,14.6 109.2,36.8 107.4,83.4 	"/>
	<polyline class="st8" points="249.1,345.5 249.2,338 248.2,320.9 247,302.2 247.5,300.4 247.8,299.2 	"/>
	<polyline class="st8" points="105.8,164 101.6,222.4 101.5,229.4 	"/>
	<polyline class="st8" points="519.9,293.6 485.9,295.2 466.9,296.8 455.3,297.8 	"/>
	<line class="st8" x1="313.9" y1="28.6" x2="325.3" y2="34.6"/>
	<polyline class="st8" points="431.6,160 442.3,164 481.2,179 494.6,184.2 524.6,195.2 	"/>
	<polyline class="st8" points="495.3,69.1 476.8,95.7 463.4,115.4 454.9,126.1 434.6,153.8 	"/>
	<polyline class="st8" points="434.6,153.8 431.6,160 422.4,175.2 410.6,194.8 405.3,205.5 404.6,214.3 404.6,247.9 	"/>
	<line class="st8" x1="392.9" y1="135.6" x2="373.7" y2="172"/>
	<polyline class="st8" points="287,105 280.9,102.4 249.2,87.8 	"/>
	<line class="st8" x1="361.5" y1="350.4" x2="354.1" y2="316.1"/>
	<polyline class="st8" points="277.4,121.8 258.7,154.1 255.7,159.7 253.3,164.2 252.6,168.6 253.6,172.2 256.1,175 	"/>
	<line class="st8" x1="280.6" y1="116.6" x2="277.4" y2="121.8"/>
	<line class="st8" x1="462.3" y1="340" x2="455.3" y2="297.8"/>
	<polyline class="st8" points="325.3,34.6 323.4,39.5 321.6,44.2 318.4,51.4 314.9,58.3 312,63.8 299.2,85.5 	"/>
	<polyline class="st8" points="347.4,282.4 345.1,270.3 344,253.7 343.1,248.5 329.7,225.8 320.8,213.4 311.7,205.8 290.7,189.5 
		275.7,181.7 266.8,178.2 259.8,176.6 256.1,175 	"/>
	<polyline class="st8" points="325.3,34.6 331.2,37.1 437.9,82.5 441.8,81.5 457,68.5 479.4,48.6 	"/>
	<line class="st8" x1="354.1" y1="316.1" x2="347.4" y2="282.4"/>
	<line class="st8" x1="462.3" y1="340" x2="462.4" y2="348.9"/>
	<line class="st8" x1="248.4" y1="352.7" x2="249.1" y2="345.5"/>
	<polyline class="st8" points="105,153 105.2,155.9 105.7,159.4 105.8,164 	"/>
	<polyline class="st8" points="247.8,299.2 245.4,299.2 243.7,299.3 241.5,299.2 237.4,298.8 233.7,297.9 228,295.9 215.6,290.5 
		200.1,282.2 192.3,277 	"/>
	<polyline class="st8" points="163.8,256.9 139.2,241 136.9,239.5 	"/>
	<polyline class="st8" points="203.1,179.9 205.6,174.8 206.5,172.6 	"/>
	<polyline class="st8" points="115.9,139.7 111.9,138.6 110.8,138.3 	"/>
	<polyline class="st8" points="151.2,218.5 167.6,196.8 170.9,193.5 174.6,190.4 182,186.7 192,182.5 203.1,179.9 	"/>
	<polyline class="st8" points="156.1,13.2 157.2,18.6 158,21.8 168.1,50.7 171.2,57.6 175.4,64.3 180.4,44.8 185.8,27.3 188.8,17.2 
			"/>
	<polyline class="st8" points="224.9,27.1 218.3,40 213.4,50.8 204,72.5 202.6,76 	"/>
	<path class="st8" d="M151,12.2"/>
	<path class="st8" d="M128.4,8"/>
	<polyline class="st8" points="278,42.1 308.9,62.1 312,63.8 	"/>
	<polyline class="st8" points="216.7,146.4 219,146.2 223.6,145.1 245.6,135.6 269.1,125.5 	"/>
	<line class="st8" x1="250.1" y1="29.1" x2="252.4" y2="24.1"/>
	<polyline class="st8" points="267.3,67.4 275.7,71.3 280.9,74.3 292.8,82.2 296.1,83.9 299.2,85.5 	"/>
	<polyline class="st8" points="231,74.6 233.1,74.9 234.7,75.2 240,75.1 254.7,73.5 259.1,72.6 262.3,71 267.3,67.4 268.8,63.1 
		278,42.1 	"/>
	<line class="st8" x1="224.9" y1="27.1" x2="244.9" y2="41.5"/>
	<line class="st8" x1="115.9" y1="139.7" x2="132.5" y2="93.3"/>
	<polyline class="st8" points="192.3,277 182.8,269.8 172.4,262.7 163.8,256.9 	"/>
	<polyline class="st8" points="136.9,239.5 120,232.3 114.7,230.8 109.6,229.8 107.3,229.7 105.4,229.6 101.5,229.4 	"/>
	<polyline class="st8" points="227.5,85.7 202.6,76 193.2,72.2 175.4,64.3 141.2,49.7 	"/>
	<polyline class="st8" points="275.7,71.3 277.5,79.2 278.9,84.1 281.7,88.2 285,94.3 286.7,98.6 287,105 	"/>
	<polyline class="st8" points="206.5,172.6 212.9,156.8 216.1,148.9 216.7,146.4 217.7,142.3 218.3,135.7 218.7,129.6 219.2,124.8 
		219.2,124.2 220,119.9 	"/>
	<polyline class="st8" points="232.9,100.7 230.1,89.1 229.2,87.2 227.5,85.7 	"/>
	<polyline class="st8" points="241.1,50.5 242.9,51.2 268.8,63.1 	"/>
	<polyline class="st8" points="206.5,172.6 190,166.3 152.3,151.7 134.2,144.5 	"/>
	<polyline class="st8" points="220,119.9 222.4,107.6 225.7,91.7 227.5,85.7 	"/>
	<polyline class="st8" points="208.8,179.6 244.3,178.2 251,177.7 256.1,175 	"/>
	<line class="st8" x1="141.2" y1="49.7" x2="151" y2="12.2"/>
	<polyline class="st8" points="133.5,91.2 133,85 133.1,81.9 133.9,77.6 141.2,49.7 	"/>
	<polyline class="st8" points="456.6,188.7 478.7,197.2 485.5,180.5 	"/>
	<polyline class="st8" points="278,42.1 288.3,46.2 294.2,47.9 298.5,48 302.4,47.6 306.3,46.8 	"/>
	<polyline class="st8" points="136.9,239.5 139.1,236.3 151.2,218.5 	"/>
	<polyline class="st8" points="250.1,29.1 252.3,30.1 278,42.1 	"/>
	<polyline class="st8" points="182.3,341.7 181,335.6 181.7,333.5 182.4,331.5 198,287.9 200.1,282.2 	"/>
	<polyline class="st8" points="141.2,49.7 118.6,43.7 114.3,43.1 109.5,40.5 	"/>
	<line class="st8" x1="233.9" y1="104" x2="271.2" y2="121.4"/>
	<line class="st8" x1="466.9" y1="296.8" x2="466.8" y2="246.7"/>
	<polyline class="st8" points="185.6,265.8 190.6,258.4 191.8,256.5 	"/>
	<polyline class="st8" points="173.6,66.8 175.7,69.7 192.9,94.4 197.1,100.2 207.3,113.2 210.3,116.6 214.4,123 218.7,129.6 	"/>
	<polyline class="st8" points="101.5,229.4 97.5,229.3 91.8,229.2 83,228.4 7.6,219.7 	"/>
	<polyline class="st8" points="244.3,178.2 240.3,174.2 219.5,174.7 210.5,174 206.5,172.6 	"/>
	<line class="st8" x1="132.5" y1="93.3" x2="133.5" y2="91.2"/>
	<line class="st8" x1="203.1" y1="179.9" x2="208.8" y2="179.6"/>
	<polyline class="st8" points="109.5,40.5 114.4,35.9 116.3,33.9 126.6,12.2 127.4,10.4 	"/>
	<polyline class="st8" points="453.4,247 453.5,212.8 452.9,208.5 451.2,205 451.9,201.8 456.6,188.7 422.4,175.2 	"/>
	<polyline class="st8" points="280.9,102.4 272.3,119.3 271.2,121.4 269.1,125.5 252.8,153 240.3,174.2 	"/>
	<polyline class="st8" points="255.7,159.7 253.7,155 252.8,153 245.6,135.6 234.6,107.8 233.9,104 232.9,100.7 	"/>
	<polyline class="st8" points="306.3,46.8 310.2,37.8 313.9,28.6 	"/>
	<polyline class="st8" points="133.5,91.2 143.6,87.2 154.9,81.2 157.2,79.5 164.8,74.2 173.6,66.8 175.4,64.3 182.7,59.8 
		195.7,50.1 214.4,35.4 224.9,27.1 231,21.8 	"/>
	<polyline class="st8" points="227.5,85.7 231,74.6 235.6,62.2 241.1,50.5 242.4,47.3 244.9,41.5 247.9,34.5 250.1,29.1 	"/>
	<line class="st8" x1="105.6" y1="137.4" x2="110.8" y2="138.3"/>
	<line class="st8" x1="134.2" y1="144.5" x2="115.9" y2="139.7"/>
	<polyline class="st8" points="519.5,245.7 412.6,247.8 404.6,247.9 349.7,249 343.1,248.5 	"/>
</g>
<g id="Layer_2">
	<polygon class="st9" points="64.4,157.6 66.7,149.1 70.3,149.9 74.5,151 76.6,151.6 79.2,152.2 81.1,152.8 84.2,153.5 94,156.1 
		94.7,157 95.5,158 95.2,163.9 95.1,164.5 94,175.6 93.9,176.9 93.1,187.7 83.2,186.5 83.2,184.6 81.5,183.8 81.9,174.8 83.6,172.8 
		78.8,171 80.9,164.6 83.9,165.3 84.3,164.9 85.5,165 85.7,162.9 84.4,162.7 82,162.1 	"/>
	<polygon class="st9" points="252.3,302 259.5,301 260.8,300.9 275.2,298.8 276.2,307.6 272,308.2 271.5,305.3 263.8,306.3 
		263.9,308 262.3,308.1 263.4,321 265.9,319 271.5,318.7 272,324.1 267.2,324.3 261.7,324.6 254.2,325.1 253.6,317.2 253.1,311.9 
		252.8,309 	"/>
	<polygon class="st9" points="399.3,187.2 403.1,179.1 408.3,181.4 412,174 417.5,177.1 413.5,184.7 410.5,190.2 407.7,191.4 
		403.4,189.3 	"/>
	<polygon class="st9" points="227.3,290.4 229.2,285.6 230.8,281.4 238.9,282.1 239,280.5 239.8,280 241.2,280.1 242,280.6 
		242,282.4 243.2,282.5 249.8,282.7 249.7,285.4 249.3,292 244,291.6 240.5,291.4 237.5,291.2 231.7,290.8 230.1,290.7 	"/>
	<polygon class="st9" points="59.7,174.3 61.2,168.9 61.9,166.2 63.8,159.2 67.1,160 70.1,161 68.2,168 67.6,170.6 71.5,171.9 
		81.9,174.8 81.5,183.8 	"/>
	<polygon class="st9" points="33.9,194 34.7,189.5 36.6,190.9 39.1,191.4 38.7,194.6 	"/>
	<polygon class="st9" points="23.6,159 25.1,154.1 35.6,157.6 33.8,162.5 32.3,162 31.9,163 27,161.5 27.2,160.5 	"/>
	<polygon class="st9" points="204.9,230.7 208.2,224 208.6,224.2 221.3,230.2 219.6,232.4 217.1,236.4 210.7,233.4 	"/>
	<polygon class="st9" points="180.7,208.5 183.8,203.8 189.2,206.5 202.4,212.6 207.2,214.8 212,217.1 210.2,220.8 206.8,219.6 
		206.2,218.3 205.3,220.1 205.7,221.2 205.5,222 204.9,222.6 203.9,222.9 200.8,229.3 197.2,227.8 192,225.5 191.2,225.1 193,221.2 
		194.5,218.1 195.6,218.5 196.4,216.9 197.2,215.4 196,214.8 195.4,215.4 194.6,215.5 182.4,209.7 	"/>
	<polygon class="st9" points="123.2,216.2 124.1,204.5 126.2,204.6 128.3,204.9 130.4,205.5 132.4,206.2 134.1,207.1 135.7,208.1 
		137.2,209.2 130.2,218.4 	"/>
	<polygon class="st9" points="59.9,279.8 78.5,279.7 79.4,287.2 94.5,286.2 95.9,299.6 96.7,309 97.5,318.3 97,318.4 85.2,318.2 
		59.1,317.8 59.7,288.6 	"/>
	<polygon class="st9" points="37.9,243.5 38.2,239.2 42.9,239.6 42.2,243.9 38.3,243.5 	"/>
	<polygon class="st9" points="14.9,305.5 18.3,280.4 30.6,282.1 27.2,307.1 	"/>
	<polygon class="st9" points="111.4,177.7 112.7,162.7 114.5,161.4 120.7,162.7 120.6,165.3 133.2,168.6 133.8,166.3 140.8,168 
		141.9,170.2 138.6,178.6 135.7,186 135.5,186.4 127.9,183.5 131.2,174.4 129.5,173.9 129.5,174.2 129.3,174.6 128.9,175 
		128.3,175.1 127.6,175 127.2,174.8 126.9,174.4 126.7,175.3 119.5,173.3 119.1,180.3 	"/>
	<polygon class="st9" points="34.9,318.1 59.1,317.8 85.2,318.2 84.4,330 78.6,329.7 78.7,328.9 57.9,326.5 57.8,327.9 54.6,327.7 
		54.6,329.1 47.6,328.3 47.2,329.3 41.4,328.7 41.5,327.2 35.4,326.7 	"/>
	<polygon class="st9" points="38.6,252.8 49.5,253.1 54.9,253.3 54.4,273.3 46.4,273.2 38.2,273.2 	"/>
	<polygon class="st9" points="111.4,177.7 114.7,181.4 115.8,200.1 111.3,200.6 	"/>
	<polygon class="st9" points="29.3,197.1 29.8,193.4 33.9,194 33.3,197.6 	"/>
	<polygon class="st9" points="47.4,108.8 50.4,97.7 50.7,96.3 56.2,97.8 53.7,107.7 55.5,108.1 56.2,107.8 57,107.8 57.7,108.3 
		57.9,109.1 57.2,111.5 	"/>
	<polygon class="st9" points="49.3,26.8 58.9,23.2 77.2,16.6 90.6,11.7 90.5,18.3 88.7,18.3 86.2,19 87.1,21.7 69.3,28.2 69.8,29.6 
		52.5,36.1 	"/>
	<polygon class="st9" points="109.5,225.2 110.2,217 111.3,200.9 124.3,202 124.1,204.5 123.2,216.2 130.2,218.4 137.2,209.2 
		138.8,207.1 149.6,214.8 135.4,234.3 131.6,233 122.7,229.9 113.4,226.6 	"/>
	<polygon class="st9" points="222.5,212.4 224.5,203.6 227.3,204.3 225.4,213 	"/>
	<polygon class="st9" points="213.2,242.4 217.1,236.4 219.6,232.4 221.3,230.2 226.6,231.9 217.4,245.2 	"/>
	<polygon class="st9" points="6.3,248.8 8.8,232.4 9.8,225.4 11.5,225.6 21,226.6 25.1,227 24.2,234.1 21.2,251.7 12.9,251 
		12.9,250 	"/>
	<polygon class="st9" points="54.4,192.5 59.1,181.2 56.5,180.5 58.8,174.1 59.7,174.3 81.5,183.8 83.2,184.6 83.2,186.5 
		83.1,186.5 81.9,186.5 81.5,196 78.2,199 74.6,198.8 65.1,197.7 62.7,197.2 57,194.4 	"/>
	<polygon class="st9" points="38.6,182.3 38.8,180.8 39.6,176.5 49.3,178.7 52.2,179.4 56.5,180.5 59.1,181.2 54.4,192.5 
		51.8,191.4 53.4,185.6 50.9,185.2 48.7,184.7 47.4,193.3 40,191.5 41.3,182.8 	"/>
	<polygon class="st9" points="189.2,206.5 191.5,201.2 203.9,206.4 202.4,212.6 	"/>
	<polygon class="st9" points="396.7,172.7 399.5,166.8 403.4,168.6 400.7,174.5 	"/>
	<polygon class="st9" points="235.3,258 235.8,256.8 236.4,255.5 235.7,255.2 237.5,250.5 238,249.5 238.7,249.7 239.8,247.3 
		243.5,248.9 242.3,252.1 239.4,259.6 236.8,258.6 	"/>
	<polygon class="st9" points="313.1,293.2 342.2,288.8 344.1,290 346.1,299.2 314.3,303.7 	"/>
	<polygon class="st9" points="236.2,102.1 242.7,88.5 275.5,104 271.8,111.8 270.1,115.2 269,117.7 252,109.6 	"/>
	<polygon class="st9" points="378.3,33.4 385.2,18.1 391.4,20.9 394,22.1 395.1,22.6 393.5,26 389.6,34.5 388.1,37.9 	"/>
	<polygon class="st9" points="206.3,279.4 209.7,274 211.4,271.4 216.3,274.5 218.2,275.8 219,274.5 219.9,274.2 221.5,275.2 
		221.5,276 220.8,277.5 224,279.4 222.1,282.7 219.4,287.4 218.3,286.7 217.5,286.2 212.2,283 	"/>
	<polygon class="st9" points="191.4,269.6 196.6,263.2 197.4,262.3 197.9,262.3 212.6,243.3 224.3,251.1 220,257.8 211.5,252 
		210.2,253.5 212,255.2 203.8,266.2 211.4,271.4 209.7,274 206.3,279.4 205.4,278.8 204.3,278.1 193.2,270.8 	"/>
	<polygon class="st9" points="249.3,292 249.7,285.4 249.8,282.7 250,279.7 253.8,279.1 261.8,277.8 263.6,289.5 253.6,291.5 	"/>
	<polygon class="st9" points="22.4,124.7 23.6,115.7 24.6,108.2 24.9,106 32,107.1 34.4,107.4 41.3,108.6 38.4,119.1 37.8,121.2 
		35.5,129.5 28.7,127.7 23.6,126.4 23,126.1 22.6,125.6 	"/>
	<polygon class="st9" points="276.3,258.8 288.9,256.6 291.7,273.1 296,272.6 296.8,284.5 294.2,284.9 280.7,286.9 	"/>
	<polygon class="st9" points="259.3,261.4 276.3,258.8 280.7,286.9 263.6,289.5 261.8,277.8 	"/>
	<polygon class="st9" points="392.8,119.4 397.9,108.8 398.4,107.9 404.1,110.7 398.5,122.2 	"/>
	<polygon class="st9" points="397.8,84.2 402,75 419.6,83 415.4,92.1 405.3,87.6 	"/>
	<polygon class="st9" points="79.9,259.1 82.5,259.2 82.4,255.9 91.7,254.9 92.5,264.2 93.3,272.6 81.2,273.7 	"/>
	<polygon class="st9" points="146.1,286.4 154,273.2 162,260 175.1,267.8 166.5,282.1 159.1,294.3 	"/>
	<polygon class="st9" points="52.7,219.3 54.1,212.1 55.1,206.8 57,194.4 62.7,197.2 65.1,197.7 63.9,211.6 73.6,212.5 74.6,198.8 
		78.2,199 81.1,202.2 80.7,209.2 91.4,211.1 90.6,222.3 83.8,222.6 69.3,221.1 67.1,220.9 65.8,220.8 	"/>
	<polygon class="st9" points="154.9,245.9 159.2,238.1 162.8,231.8 168.7,235.6 178.1,219.6 191.2,225.1 192,225.5 189,230.9 
		184.5,228.9 182.9,228 181.2,228.3 176.6,236.2 178,237.1 180.1,240.4 176.8,245.5 179,246.9 178.6,247.5 177.2,249.7 172.5,257.3 
		171,256.3 170.3,255.8 160.4,249.5 	"/>
	<polygon class="st9" points="387.5,57.2 389.9,51.3 390.1,51.4 391.6,47.7 396.1,49.6 394.6,53.3 396.8,54.2 395.8,56.7 
		394.9,56.4 393.6,59.6 	"/>
	<polygon class="st9" points="427.8,64.2 428.2,62.6 428.5,61 431.2,61.6 431.7,59.5 442.2,61.8 442.6,59.8 446.7,60.7 445.9,64 
		446.3,64.1 445.1,69.1 439.9,68 439.6,69.1 430,66.9 430.4,64.8 	"/>
	<polygon class="st9" points="172.5,257.3 177.2,249.7 178.6,247.5 190,255.1 191.8,256.5 193.5,257.8 197.4,262.3 196.6,263.2 
		191.4,269.6 185.6,265.8 	"/>
	<polygon class="st9" points="24.9,106 25.5,99.8 26.1,94.4 33.3,95.4 50.4,97.7 47.4,108.8 41.6,107.4 42.5,104.4 42.7,103.7 
		43.6,103.6 43.6,102.2 41.2,103.3 41,104.2 36.2,103.4 34.7,104.1 34.4,107.4 32,107.1 	"/>
	<polygon class="st9" points="488.9,113 491.7,105.7 497.4,107.5 494.5,115.1 	"/>
	<polygon class="st9" points="491.1,142 492.8,137.5 495,131.6 500.5,132.6 496.7,143.4 	"/>
	<polygon class="st9" points="497.6,124.2 503.4,107.8 506.2,108.4 517.1,109.7 536.2,112.2 535.1,119.3 532.6,133.3 531.8,138 
		520,135.9 523.3,118.1 525.3,118.2 525.6,116 523,115.7 514.9,114.6 507.7,113.8 506.1,114.8 504.3,119.8 502.2,125.7 	"/>
	<polygon class="st9" points="473.6,123 474.5,121 480.7,123.8 479.8,125.8 	"/>
	<polygon class="st9" points="471.1,157.4 476.1,144.7 478.6,145.7 480.6,146.5 477.9,153.5 475.6,159.2 	"/>
	<polygon class="st9" points="445.4,100 446.1,98.5 447,97.7 448.5,99.1 456.4,91.9 461.4,97.2 464.3,99.3 460.7,104.1 462.4,105.4 
		460.2,108.5 454.2,105.1 	"/>
	<polygon class="st9" points="451.9,136.6 454,133.7 457.8,128.6 459.5,126.3 466,129.9 458.1,141 456.4,139.7 	"/>
	<polygon class="st9" points="426.1,174.4 430.1,163.8 455,173.3 481.9,183.5 477.9,194 471.9,191.8 465.3,189.3 457,186.1 
		430.8,176.2 	"/>
	<polygon class="st9" points="399.1,165.2 404.1,154.9 408.6,145.8 418.6,150.6 414.4,159.3 408.2,156.3 405.4,163.2 411.6,166.3 
		409.6,170.2 	"/>
	<polygon class="st9" points="414.4,159.3 418.6,150.6 423.8,153.2 427.9,155.1 428.9,157.6 423.5,167.4 419.1,175.2 414.3,172.6 
		419.8,162 	"/>
	<polygon class="st9" points="413.3,139.3 425.5,112.8 429.6,115 422.6,130.5 423,132.2 428.5,134.8 427.7,136.9 424.4,144.6 
		421,143.1 	"/>
	<polygon class="st9" points="442.4,121.4 454.2,105.1 460.2,108.5 463.2,110.2 459.1,115.9 454.5,122.4 451.5,126.6 	"/>
	<polygon class="st9" points="456.8,148.9 465.7,135.7 469.6,138.3 463.9,146.8 461.3,150.8 459.8,151 	"/>
	<polygon class="st9" points="329,147.6 331,144.6 337.6,149.1 338.4,147.9 341.8,150.2 339,154.6 	"/>
	<polygon class="st9" points="375.8,172.6 376.6,171.1 381.4,161.4 384,156.3 389.8,159.4 391.4,160.3 385.7,171.7 382.2,179.3 
		376,176 	"/>
	<polygon class="st9" points="368.2,114.4 369.6,111.2 370.8,108.5 374.2,101.2 378.5,103.2 378.4,103.4 388.7,108 388.8,107.8 
		393,109.6 387.6,121.4 386.9,122.9 382.8,121.1 	"/>
	<polygon class="st9" points="487.2,298.6 496.6,298.3 496.8,303.7 492.8,303.8 493.2,314.8 487.8,315 487.4,303.4 	"/>
	<polygon class="st9" points="407.2,335.3 411.3,334.3 413.5,333.7 421.5,332.2 421.9,332 423,335.8 408,339.1 	"/>
	<polygon class="st9" points="346.6,241.7 348.4,230.7 356,231.9 354.2,243 	"/>
	<polygon class="st9" points="350.6,286.1 364,283.7 365.8,296.1 379,295 381.6,307.2 376.8,308 367.2,309.7 359.1,311.1 
		357.2,311.5 354.4,309.4 352.9,300.6 	"/>
	<polygon class="st9" points="359.3,317.8 380.7,313.1 382.6,321.8 379.2,322.5 378.4,319.1 371.6,320.6 375.3,337.3 364.1,339.7 	
		"/>
	<polygon class="st9" points="333.3,315.8 336.9,315.1 335.1,306.1 346.9,303.4 351.7,326.2 340,327.6 338.1,320.3 334.3,320.9 	"/>
	<polygon class="st9" points="389.8,212.2 390,206.1 400.7,206.5 400.5,212.5 	"/>
	<polygon class="st9" points="389.3,230.3 389.5,224.3 400.2,224.6 400,230.6 	"/>
	<polygon class="st9" points="380.7,313.1 398.9,309.1 400.8,317.8 382.6,321.8 	"/>
	<polygon class="st9" points="476.4,73.1 479.8,69.5 483.9,73.5 489.6,65.4 492.2,68.9 484,80.5 	"/>
	<polygon class="st9" points="484.7,160.2 487.2,153.8 495.1,155.9 493.6,161.8 493.3,162.8 	"/>
	<polygon class="st9" points="423.3,36.6 426,31.3 434.9,36 432.1,41.2 	"/>
	<polygon class="st9" points="320.6,26.8 325.1,16.8 333.8,20.7 329.4,30.7 	"/>
	<polygon class="st9" points="337.5,34.6 341.1,26.6 370.6,39.3 367,47.7 	"/>
	<polygon class="st9" points="382.4,65.1 383.4,63.1 384.3,63.6 383.3,65.6 	"/>
	<polygon class="st9" points="248.4,257.7 249.4,252.5 254.2,253.4 253.1,258.8 	"/>
	<polygon class="st9" points="259.9,228.2 264.2,211.1 267.2,211.9 262.6,228.8 	"/>
	<polygon class="st9" points="230.3,241 234.3,234.3 248,237.7 244.6,246.2 241.7,245.2 239.7,244.4 239,245.3 237.8,245.4 
		237.2,244.7 237.3,243.6 232.6,241.9 	"/>
	<polygon class="st9" points="291.6,226.6 292,223.5 293.8,222.3 294.2,219.9 299.3,220.9 297.1,227.6 	"/>
	<polygon class="st9" points="274.9,205 275.6,202.7 276.8,201.9 277.7,199.2 278.8,198.2 280.8,199 277.6,207.2 275.5,206.7 	"/>
	<polygon class="st9" points="396.3,202.1 400.3,193.4 406,196 401.9,204.8 	"/>
	<polygon class="st9" points="226.1,195.5 226.5,184.7 240.6,184.5 240.6,195.3 239.7,195.3 239.5,198.7 238.8,203.7 235.9,203.4 
		235.5,203 236.1,197.3 236.7,197.3 236.9,195.3 	"/>
	<polygon class="st9" points="287.3,203.3 291.7,196.5 305.3,206.6 300.3,213.3 	"/>
	<polygon class="st9" points="311.3,201.6 325.3,179.3 330.6,182.6 322.7,195.2 333.1,202.9 331.6,205.7 327.6,213.4 	"/>
	<polygon class="st9" points="407.2,218.2 407.4,215.1 407.7,209.8 407.9,206 410.3,201.7 412.8,197.3 416,191.6 419.2,185.9 
		421.1,182.5 430.2,187.7 418.6,208.3 418,218.9 	"/>
	<polygon class="st9" points="466.4,116.7 467.9,114.4 471.1,109.8 473.3,106.8 481.2,110 488.9,113 494.5,115.1 495.1,115.3 
		493,120.7 482,116.5 479.5,112.6 473.7,120.6 	"/>
	<polygon class="st9" points="376.8,346.1 387.8,343.6 405,339.8 408,339.1 423,335.8 423.4,337.8 424.5,342.6 424.6,342.9 
		378.4,353.2 	"/>
	<polygon class="st9" points="349.3,252.9 353.2,252.8 384.6,252.1 385.2,274.3 385.5,279.1 403.6,278 407.4,292.2 408.2,300.6 
		381.6,307.2 379,295 365.8,296.1 364,283.7 350.6,286.1 349.1,277.8 	"/>
	<polygon class="st9" points="299.8,219.7 303.6,214.4 311.2,220 307.4,225.2 	"/>
	<polygon class="st9" points="296,272.6 299.1,272.3 298.9,264.9 318.8,262 319,262.8 323.3,262.3 323.4,252.7 333.2,252.6 
		333.4,266 333.5,279.2 321.3,281 306.5,283 296.8,284.5 	"/>
	<path class="st9" d="M272.3,324l5.3-0.4l19.9-1.1l0.8,4.8l0.5-0.1l0.1,3.8l-2-0.1v11.3h2.4v12.6l-16.9,0.2l-0.1,1.3l-1.3-0.1
		l-1.4-0.1V355l-4.5-0.1l-0.2-6.5h-1.4l-0.1-3.5l-0.3-3.8L272.3,324z"/>
	<polygon class="st9" points="254.2,325.1 261.7,324.6 267.2,324.3 272,324.1 272.3,324 273.1,341.3 273.4,345.2 273.5,348.6 
		271.9,348.6 270.3,348.6 270.3,348.2 268.4,348.1 268.3,349.3 261.6,349.8 261.3,347.4 255.7,347.8 	"/>
	<polygon class="st9" points="35.4,326.7 41.5,327.2 41.4,328.7 47.2,329.3 47.6,328.3 54.6,329.1 54.6,327.7 57.8,327.9 
		57.9,326.5 78.7,328.9 78.6,329.7 84.4,330 85.2,318.2 97,318.4 96,331 95.7,333.6 95.5,335.5 94.8,344.3 83.5,343 83.6,341.6 
		68.8,339.8 68.9,338.2 58.8,337.1 58.5,339.8 47.8,338.6 47.5,341.5 41.6,340.9 36.2,340.3 35.9,335.5 35.6,330.9 	"/>
	<polygon class="st9" points="78.2,199 81.5,196 81.9,186.5 83.1,186.5 83.2,186.5 93.1,187.7 92.7,194.1 92.3,198.9 91.4,211.1 
		80.7,209.2 81.1,202.2 	"/>
	<polygon class="st9" points="38.4,119.1 41.3,108.6 41.6,107.4 47.4,108.8 57.2,111.5 60.4,112.4 59.4,116.5 46.3,112.9 
		44.8,113.5 43.1,120.3 	"/>
	<polygon class="st9" points="507.8,94.5 511.7,84.2 515.4,85.3 511.4,96 	"/>
	<polygon class="st9" points="384.5,68.6 385.6,66.4 387.7,67.5 386.6,69.7 	"/>
	<polygon class="st9" points="374,82 374.5,80.7 375.2,81 377.8,74.8 379.7,75.6 376.6,83.1 	"/>
	<polygon class="st9" points="347.3,103.3 350.6,98.1 351.9,96.1 365.9,105 365.4,105.5 364,108.1 361.3,112.1 	"/>
	<polygon class="st9" points="316.7,330.7 321,329.9 321.7,329.8 322.6,341.9 324.1,343.7 336.8,343.5 337,354.4 329.9,354.5 
		323.6,354.6 319,354.7 317.6,340 	"/>
	<polygon class="st9" points="483.8,91.6 489.9,82.9 496.7,87.6 490.6,96.4 	"/>
	<polygon class="st9" points="212,217.1 216.8,192.8 217.1,185 219.2,184.9 226.5,184.7 226.1,195.5 221.5,195.5 221.5,196.2 
		221.2,196.6 220.8,196.9 220.9,197.3 220,202 221.2,202.2 220.5,206 219,206 218.2,210.1 220.5,210.4 220.2,212.1 220,213.5 
		217.3,213.3 216.1,218.8 	"/>
	<polygon class="st9" points="211.4,271.4 220,257.8 224.3,251.1 229.3,242.6 234,245.5 232,248.7 232.4,249.1 231.9,250.1 
		231,251.6 230.4,251.3 226.2,258.4 227.7,259.3 226.9,260.6 226.1,261.9 224.5,260.9 220.8,267.1 221.1,267.3 220.4,268.5 
		219.7,269.7 219.3,269.5 216.3,274.5 	"/>
	<polygon class="st9" points="49.4,82.6 51.5,74.8 57.2,76.4 57.8,74.6 63.1,76.1 62.7,77.9 68.8,79.6 69.3,78.7 69.7,78.4 
		70.2,78.3 71,78.3 81.3,81.3 81.7,74 81.2,74.2 80.6,74.2 80,74.2 79.5,73.8 79.2,73.3 79.1,72.8 79.3,72.2 79.8,71.5 71.3,71.1 
		70.8,70.9 70.4,70.5 70.2,70 70.7,63 73.3,63.4 81.7,66.8 81.5,70.8 99.9,71.9 98.5,96.5 85.4,95.2 85.3,93.4 67.2,88.5 54.9,84.7 
			"/>
	<polygon class="st9" points="29.7,65.4 31,59.2 33.4,48.5 72.8,46.8 101.1,45.9 100.2,65.7 99.9,71.9 81.5,70.8 81.7,66.8 82.3,55 
		79.6,54.8 79.6,53.8 77.4,53.6 77.3,54.6 70.7,54.3 52.9,54.6 45.3,55.4 42.9,66.6 36.1,66 	"/>
	<polygon class="st9" points="139.6,305.3 145.6,295.4 156.8,302 153.6,303.7 149.1,301.1 146.9,304.7 144.7,308.4 	"/>
	<polygon class="st9" points="64.4,97.7 67.2,88.5 85.3,93.4 85.4,95.2 98.5,96.5 96.9,126.2 74.8,122.8 75.4,113.5 76.1,101.9 
		75.4,101.9 74.8,101.7 74.3,101.5 74,101.1 73.8,100.4 	"/>
	<path class="st9" d="M260.9,165.6l5.6-9.3l12.8-21.7l5.8-9.7l1.7-3l1.1-1.8l2.8-4.5l11.9,8.2l13.7,9.1l4.4,3.1l4.7,3l-6.9,11.5
		l-1.5-0.8l-2.9,5l10.3,6.3l-1.5,2.8l-3.2-1.7l-9.4,14.8l-20.6-12.4l-8.6-4.9l-7.9,13.2L260.9,165.6z"/>
	<polygon class="st9" points="473.3,106.8 479.5,97.9 486.3,102.5 481.2,110 	"/>
	<polygon class="st9" points="384,156.3 385.8,152.7 392.3,139.9 394.5,139 399.5,141.4 408.6,145.8 404.1,154.9 394.4,150.6 
		389.8,159.4 	"/>
	<polygon class="st9" points="479.5,97.9 483.8,91.6 490.6,96.4 486.3,102.5 	"/>
	<polygon class="st9" points="288.9,240.9 291.6,226.6 297.1,227.6 294.3,242 	"/>
	<polygon class="st9" points="276.9,315.6 279.7,315.5 279.9,317.9 290,317.3 290.1,316.5 290.3,315.9 290.8,315.6 291.3,315.4 
		291.8,315.3 292.4,315.4 292.9,315.8 293.2,316.4 293.1,317.1 296.8,317.1 297.6,322.6 277.6,323.7 	"/>
	<polygon class="st9" points="289.5,307.6 291.9,307.2 291.8,305.9 295.2,305.5 296.8,317.1 293.1,317.1 293.2,316.4 292.9,315.8 
		292.4,315.4 292.8,314.8 292,309.7 289.8,309.9 	"/>
	<polygon class="st9" points="352.9,216.8 354.9,208.1 379,213.6 375.1,230.4 368.3,228.9 370.2,220.7 	"/>
	<polygon class="st9" points="319.6,323.3 320.4,321.7 328.2,319.8 330.2,328.9 321.7,329.8 321,329.9 	"/>
	<polygon class="st9" points="420.2,251.8 433.3,251.4 434.1,273.3 430.2,273.5 429.8,261.1 420.6,261.4 	"/>
	<polygon class="st9" points="333.7,97.8 334.8,95.7 336.3,96.5 335.2,98.7 	"/>
	<polygon class="st9" points="391.4,20.9 391.7,20.4 394.2,21.6 394,22.1 	"/>
	<polygon class="st9" points="436.7,158.8 439.5,153.6 440.9,151.4 446.4,153.5 445.1,155.8 450.9,158.3 448.8,163.6 	"/>
	<polygon class="st9" points="440.9,151.4 444.6,144.5 451,147.7 449.5,151.2 448.1,150.6 446.4,153.5 	"/>
	<polygon class="st9" points="510.1,139.2 511.1,134.4 520,135.9 531.8,138 532.4,138.1 530.2,150 521,148.1 522.3,141.2 522,139.9 
		516,138.8 515.7,140 	"/>
	<polygon class="st9" points="507.6,172.8 508.3,170.2 515.6,172.1 514.9,174.7 	"/>
	<polygon class="st9" points="489,179 491.1,171.8 491.5,170.8 506.6,176.2 506,178.3 504.3,184.6 	"/>
	<polygon class="st9" points="444.7,34.7 446.3,27.7 452.2,29 450.7,36 	"/>
	<polygon class="st9" points="436.4,37.2 436.9,35.8 438.9,36.6 438.3,37.9 	"/>
	<polygon class="st9" points="391,183.7 394.4,175.4 397.4,176.7 398.5,175.3 399.6,175.4 400.9,176 401.4,177.2 401.3,178.3 
		403.1,179.1 399.3,187.2 	"/>
	<polygon class="st9" points="466.6,63.8 479.4,52.1 485.4,60.1 473.6,70.5 	"/>
	<polygon class="st9" points="35,217.4 36.1,210.5 38.7,194.6 39.1,191.4 40,191.5 47.4,193.3 46.9,197.2 46.7,198.5 44.4,198.2 
		43.8,201.5 42.7,207.2 47.1,207.5 47.1,205.9 47.9,205.1 50.6,205.3 51.4,206.4 55.1,206.8 54.1,212.1 52.7,219.3 43.4,218.4 	"/>
	<polygon class="st9" points="21.2,251.7 24.2,234.1 25.1,227 33,227.8 41.1,228.7 50.5,229.6 52.1,229.8 54.2,230 68.4,231.5 
		70.2,231.7 73.4,232.1 87.8,233.6 88.9,234.7 89.9,235.9 91.6,253.5 91.7,254.9 82.4,255.9 82.5,259.2 79.9,259.1 71.5,258.9 
		71.6,253.8 79.4,253.4 79.5,250.9 78.7,250.8 78.3,246.6 69.6,247.4 69.8,241.4 68.2,241.3 55.5,239.8 55.4,240.9 42.9,239.6 
		38.2,239.2 32.9,238.7 31.6,247.1 30.8,252.3 	"/>
	<polygon class="st9" points="336.8,343.5 337,336.4 342.2,336.2 345.6,335.5 345.9,336.1 347.3,343.4 	"/>
	<polygon class="st9" points="423.4,337.8 429.6,336.4 437.6,334.6 438.7,339.4 424.5,342.6 	"/>
	<polygon class="st9" points="254.2,325.1 261.7,324.6 267.2,324.3 268.4,348.1 268.3,349.3 261.6,349.8 261.3,347.4 255.7,347.8 	
		"/>
	<polygon class="st9" points="178.6,247.5 179,246.9 189,230.9 192,225.5 197.2,227.8 194.9,231.8 196.3,232.7 196.4,233.5 
		195.5,235.1 194.7,235.2 193.4,234.4 189,241.6 195.9,245.8 190,255.1 	"/>
	<polygon class="st9" points="99.8,298 102.7,297.8 103,300.4 100,300.7 	"/>
	<polygon class="st9" points="30.8,252.3 31.6,247.1 40.9,247.6 49.8,248.1 49.5,253.1 38.6,252.8 	"/>
	<polygon class="st9" points="49.5,253.1 49.8,248.1 55.7,248.4 56,247.9 67.3,247.1 68.2,241.3 69.8,241.4 69.6,247.4 78.3,246.6 
		78.7,250.8 79.5,250.9 79.4,253.4 71.6,253.8 54.9,253.3 	"/>
	<polygon class="st9" points="46.4,275.3 46.4,273.2 54.4,273.3 81.2,273.7 93.3,272.6 94.5,286.2 79.4,287.2 78.5,279.7 
		59.9,279.8 59.7,288.6 48.8,288.7 49,275.5 	"/>
	<polygon class="st9" points="111.4,177.7 119.1,180.3 127.1,183.1 127.9,183.5 135.5,186.4 135.7,186 138.8,185.5 141.8,185.1 
		146.6,172.5 151,170.8 151,175.8 158.3,178.8 161.4,196.8 149.8,192.4 149.7,204.4 149.6,214.2 149.6,214.8 138.8,207.1 
		132.3,202.5 124.3,202 111.3,200.9 111.3,200.6 115.8,200.1 118.9,199.7 118.9,198.6 119.1,186 116.4,183.2 114.7,181.4 	"/>
	<polygon class="st9" points="52.6,68.2 53.6,60.7 65.6,62.3 65.2,65.6 64.5,65.5 64.3,67.4 64.1,67.9 63.7,68.4 63,68.4 54,67.2 
		53.7,68.3 	"/>
	<polygon class="st9" points="516.3,85.7 517.1,81.3 518.1,77 522.8,77.9 540.7,81.5 542,83.4 541.6,86.4 539.6,96.5 530.9,95.5 
		532.6,85.6 530.8,85.3 530.2,88.4 	"/>
	<polygon class="st9" points="424.4,144.6 427.7,136.9 432.3,138.8 436.9,132.5 436,131.6 439.8,126.6 439.3,125.3 436.3,123.3 
		438.4,119.4 442.4,121.4 451.5,126.6 439.7,143.5 436.3,148.4 435.1,148.7 434,148.9 430,147.2 	"/>
	<polygon class="st9" points="448.8,163.6 450.9,158.3 452.2,154.8 469.3,161.6 469,162.4 465.9,170.3 459.2,167.7 451.8,164.8 	"/>
	<polygon class="st9" points="385,197 389,188.2 394.7,190.8 390.6,199.6 	"/>
	<polygon class="st9" points="368.2,143 372.3,134.1 373.4,131.6 388.2,138.2 388.9,140.1 379.6,158.1 375.3,156.1 370.6,153.9 
		374.6,146.5 	"/>
	<polygon class="st9" points="334.8,95.7 348.8,68.4 353.5,59.2 355.8,54.8 355.9,54.5 359.2,56.1 359.1,56.3 364.3,58.9 
		364.4,58.8 367.7,60.4 367,61.4 365.4,65 364.8,64.7 359.5,76.8 365.5,79.3 368.8,80.9 364.5,90.2 354.6,85.5 348.6,97.1 
		346.4,101.7 338,97.2 336.3,96.5 	"/>
	<polygon class="st9" points="364,108.1 365.4,105.5 370.8,108.5 369.6,111.2 	"/>
	<polygon class="st9" points="367.1,118.3 368,116.2 383.2,123.1 382.3,125.2 	"/>
	<polygon class="st9" points="270.1,115.2 271.8,111.8 286.7,121.9 285,124.9 	"/>
	<polygon class="st9" points="267.2,200.1 268.2,196.1 270,197.8 269.4,200.3 	"/>
	<polygon class="st9" points="239.5,198.7 239.7,195.3 240.6,195.3 240.6,184.5 249.2,184.9 270.7,183.9 268.8,192.9 268.4,194.7 
		256.3,195 256.3,198.3 253.7,198.4 253.7,198.9 249.6,199 249.4,195.1 243.1,195.1 243.1,196.3 243.4,196.4 243.6,196.5 
		243.9,196.6 244.1,196.8 244.2,197 244.4,197.3 244.4,197.6 244.5,197.9 244.4,198.1 244.3,198.4 244.2,198.7 244,198.9 243.7,199 
		243.5,199.2 243.2,199.2 242.9,199.2 241.3,199 	"/>
	<polygon class="st9" points="482.6,298.8 487.2,298.6 487.4,303.4 482.8,303.6 	"/>
	<polygon class="st9" points="419.7,322.2 430.5,319.7 434.5,318.8 436.1,327 427.7,329 421.8,330.4 	"/>
	<polygon class="st9" points="403.6,278 419.8,275.6 420.7,282.5 410.3,283.9 411.3,291.7 407.4,292.2 	"/>
	<polygon class="st9" points="419.8,275.6 426.2,274.3 428.4,286.8 436.1,285.5 437.8,295.5 423.5,297.9 420.7,282.5 	"/>
	<polygon class="st9" points="406.1,307.8 414,306.2 418.5,322.2 421.1,330.7 421.5,332.2 413.5,333.7 	"/>
	<polygon class="st9" points="402,252.1 416.9,251.8 417.1,264.2 409.2,264.1 409.6,269.8 419.3,269.5 419.8,275.6 403.6,278 
		405.6,272.5 402.6,272.6 402.4,264 	"/>
	<polygon class="st9" points="336.8,343.5 347.3,343.4 345.9,336.1 353.6,334.3 356.5,348.7 357.3,352.4 356.6,353.3 355.8,354.2 
		346.5,354.3 337,354.4 	"/>
	<polygon class="st9" points="275.7,212.6 277.2,208.3 279.8,209.1 278.5,213.5 	"/>
	<polygon class="st9" points="270.3,348.6 271.9,348.6 273.5,348.6 273.5,351.2 270.4,351.3 	"/>
	<polygon class="st9" points="243.2,282.5 244.2,281.1 246.4,267.1 248.4,257.7 253.1,258.8 251.3,267.7 250,279.7 249.8,282.7 	"/>
	<polygon class="st9" points="281,198.5 283.9,190.5 291.7,196.5 287.3,203.3 	"/>
	<polygon class="st9" points="293.8,296.1 310.2,293.6 311.1,304.5 299.1,306.4 299.4,307.5 300.2,307.5 301.1,308.2 303.4,326.5 
		298.9,327.3 298.4,327.4 297.6,322.6 296.8,317.1 295.2,305.5 	"/>
	<polygon class="st9" points="331.3,49.6 332.9,48.9 333.7,47 335.6,47.8 336.8,47.3 337.3,48.5 341.4,50.1 342.3,47.9 347.2,49.9 
		346.3,52.1 350.9,54 352.3,50.7 376.8,60.8 376.9,60.6 377.1,60.7 376.4,61.9 378.8,63.2 378.6,63.5 372.3,60.6 371.1,63.2 
		367,61.4 367.7,60.4 364.4,58.8 364.3,58.9 359.1,56.3 359.2,56.1 355.9,54.5 355.8,54.8 353.5,59.2 351.4,58.4 350.5,60.7 
		341.9,57.2 341.2,58.9 337.1,57.1 337.7,55.5 335.1,54.4 333.6,55.1 333,53.5 331.3,52.9 332,51.2 	"/>
	<path class="st9" d="M468.5,255.6h27.3h15.4v9.3h-1.3v15.7h1.4v3.7v6.6h-21.6h-21.1v-7.5h2v-17.5h-2.1L468.5,255.6z"/>
	<polygon class="st9" points="124.8,129.5 125.7,127 126.5,127.3 128.1,123.1 127.2,122.7 128.3,119.8 129.2,120.2 130.9,115.6 
		132.7,110.7 131.9,110.4 133.2,106.9 134,107.2 135.1,104.2 134.2,103.9 135.2,101.1 136.1,101.4 136.8,99.7 138.8,100.4 
		138.1,102.2 143.5,104.2 144.1,102.5 146.7,103.4 146.1,105.1 149.7,106.4 149.8,106.1 151.4,106.6 151.2,107 155.3,108.5 
		155.5,108 157.1,108.5 156.9,109.1 160.8,110.5 161,110 162.8,110.7 162.6,111.2 165.8,112.4 166,111.8 167.8,112.5 167.6,113 
		171.1,114.4 171.3,113.8 178.8,116.6 178.6,117.1 180.2,117.7 182.1,118.4 182.2,118 183.8,118.6 183.6,119 187.6,120.4 
		188.8,117.2 188.2,117 189.2,114.5 191.5,115.4 191.3,116 202.4,120.1 202.7,119.2 205.2,120.1 204.3,122.6 203.2,122.2 
		202.2,124.6 205.5,125.8 202.9,132.6 205.1,133.4 205.4,132.6 207.1,133.2 206.8,134.1 207.8,134.3 208.7,134.9 209.6,135.6 
		210.4,136.4 211.1,137.3 211.9,139.1 212.2,140.1 212.4,141.2 212.3,143.1 211.8,145 211.1,146.4 210.3,147.5 209.3,148.5 
		208.2,149.3 207.4,149.7 206.4,150 205.3,150.3 204,150.4 202.6,150.3 201.5,150.1 201,150 200.6,150.9 198,149.9 198.4,149 
		197.1,148.5 194.4,155.7 191.2,154.5 190.6,156.1 191.1,156.3 190.1,159.1 186.8,157.9 187.1,157.1 177.1,153.4 176.9,154 
		174.7,153.2 175.6,150.8 176.3,151.1 177.1,148.8 173,147.2 172.8,147.8 170.2,146.8 170.4,146.3 167.9,145.3 167.7,145.8 
		165.8,145.1 166,144.6 164.3,144 162.1,143.2 161.9,143.7 160.2,143.1 160.4,142.6 156.9,141.3 156.7,141.8 154.8,141.1 155,140.6 
		152.2,139.6 152.1,140 150.4,139.4 150.6,139 147.2,137.7 147,138.1 145,137.3 145.1,136.9 141.6,135.6 141.5,136 139.3,135.2 
		139.4,134.8 135.6,133.4 135.1,134.9 132,133.8 132.6,132.3 130.5,131.5 127.8,130.5 127.2,132.1 125,131.3 125.6,129.7 	"/>
	<polygon class="st9" points="503,82.4 504.1,74.2 518.1,77 517.1,81.3 515.4,85.3 511.7,84.2 	"/>
	<polygon class="st9" points="516.3,173.3 516.4,172.6 516.6,172.1 516.8,171.6 517.1,171.2 517.6,171 518.1,170.9 518.6,170.9 
		519.2,166.8 521.2,167.1 521.6,164.1 527.3,164.9 526.7,169.9 525.9,176.3 525.5,178.8 517.7,177.7 517.9,174.9 517.1,174.7 
		516.7,174.4 516.5,174.1 	"/>
	<polygon class="st9" points="510.3,162.7 511.1,159.9 511.6,160 512,158.5 519.7,159.5 521.3,158 522.5,150.6 529.1,151.9 
		527.3,164.9 521.6,164.1 	"/>
	<polygon class="st9" points="406.5,63.7 409.2,57 416.6,59.9 413.9,66.6 	"/>
	<polygon class="st9" points="438.2,89.7 445.4,83.1 457.6,72 464.4,78.4 466.2,80.1 464,82.1 465.3,83.5 456.4,91.9 448.5,99.1 
		447,97.7 446.1,98.5 	"/>
	<polygon class="st9" points="460.7,104.1 464.3,99.3 467.8,94.6 473.2,98.5 466.5,108.2 462.4,105.4 	"/>
	<polygon class="st9" points="457.6,72 461.7,68.3 466.6,63.8 473.6,70.5 476.4,73.1 484,80.5 481.8,83.7 478.8,87.9 477,90.3 
		470.9,84.5 476.1,77.5 474.3,76.7 473.6,76.9 473,76.9 472.4,76.7 472,76.4 471.6,76 471.5,75.5 471.5,75 471.7,74.4 470.6,73 
		464.4,78.4 	"/>
	<polygon class="st9" points="402.2,135.2 427.1,81.2 436.4,85.5 411.4,139.5 	"/>
	<polygon class="st9" points="359.9,114.4 361.3,112.1 364.7,114.4 363.4,116.5 360.5,114.9 	"/>
	<polygon class="st9" points="359.5,76.8 364.8,64.7 365.4,65 367,61.4 371.1,63.2 372.3,60.6 378.6,63.5 382.4,65.1 383.3,65.6 
		383.8,65.8 382.1,69.9 379.7,75.6 377.8,74.8 375.2,81 374.5,80.7 366.4,77.1 365.5,79.3 	"/>
	<polygon class="st9" points="382.3,125.2 383.2,123.1 383.6,122.3 382.4,121.8 382.8,121.1 386.9,122.9 387.6,121.4 394,124.3 
		391.6,129.5 	"/>
	<path class="st9" d="M316.1,133l3.5-6.2l4.2-7.3l6.4-10.8l21.7,12.4l-11.7,20.5l1.4,1.1l-3.1,5.3l-0.8,1.2l-6.6-4.5l0.7-1.2
		l-6.5-4.3l-4.7-3L316.1,133z"/>
	<polygon class="st9" points="268.8,192.9 270.7,183.9 273.1,184.9 279.6,188.5 283.9,190.5 281,198.5 280.8,199 278.8,198.2 	"/>
	<polygon class="st9" points="496.6,298.3 516,297.5 516.3,306.5 496.9,307.3 496.8,303.7 	"/>
	<polygon class="st9" points="408.2,221.5 415.1,221.5 415.1,232.7 426.8,232.7 426.9,227.9 434,228 434,232.8 443.5,232.8 
		443.5,244.1 408.1,243.9 	"/>
	<polygon class="st9" points="454.9,230.7 463.1,230.6 463,227.9 470.4,227.8 470.4,230.5 480.4,230.4 480.4,233 480.6,243.8 
		455.1,244.2 	"/>
	<polygon class="st9" points="431.8,305.2 442.3,303.4 452.9,301.5 456.9,327.4 458.2,335.4 453.5,336.4 447.9,337.4 444.1,314.8 
		433.9,316.3 	"/>
	<polygon class="st9" points="313.1,225.9 321.2,220.8 332.1,238.3 324,243.4 	"/>
	<polygon class="st9" points="235,233.4 236,224.3 259.3,229.7 257.1,238.7 	"/>
	<polygon class="st9" points="477.6,174.9 480.7,167.8 490.5,171.9 488.3,179.2 	"/>
	<polygon class="st9" points="299.3,342.4 302.9,342.2 304.4,339.9 304.2,338.6 304.7,337.2 305.6,336.5 307.1,336.1 309.5,336.4 
		310.3,336.7 310.9,337.6 311.4,339 311.8,339.6 317.6,340 319,354.7 310.3,354.9 299.3,355 	"/>
	<polygon class="st9" points="199.5,316.8 203.7,298.7 208.1,301.2 206,310.4 220.9,315.9 218.1,323.8 	"/>
	<polygon class="st9" points="199.5,202.5 200.8,195.6 205.7,196.4 204.1,204.8 200.2,203.6 	"/>
	<polygon class="st9" points="69.9,138 73.6,123.9 74.8,122.8 96.9,126.2 96.3,142.6 95.1,143.5 93.9,144.4 	"/>
	<polygon class="st9" points="203.7,298.7 207.2,291.2 207.6,290.5 222.2,297.2 223.4,297.7 243.7,307.3 244.4,318.1 239.7,315.9 
		218.5,306.1 208.1,301.2 	"/>
	<polygon class="st9" points="173,196.8 178,191.3 194.5,185.5 194.4,194.5 194.3,195.8 190.9,196.9 179.2,200.8 	"/>
	<polygon class="st9" points="208.6,224.2 210.2,220.8 212,217.1 216.1,218.8 221.9,220.2 221.8,222.7 224,223.7 221.3,230.2 	"/>
	<polygon class="st9" points="193.5,257.8 195.9,254.9 200.5,249.2 199,247.9 206.5,238.3 207,238.6 212.8,243 212.6,243.3 
		197.9,262.3 197.4,262.3 	"/>
	<polygon class="st9" points="207,238.6 207.8,237.5 207.7,236 209.2,235.6 210.7,233.4 217.1,236.4 213.2,242.4 212.8,243 	"/>
	<polygon class="st9" points="194.5,185.5 205.8,185.5 205.9,194.9 194.4,194.5 	"/>
	<polygon class="st9" points="487.2,195.2 490.1,186.2 520.4,198.4 521.5,202.8 519.6,207.9 521.2,209.9 515.6,239 513.9,239.6 
		513.9,243.2 499.5,243.3 499.5,238.8 495.5,238.8 495.6,229.3 504.9,229.4 507.7,209.2 498.1,205.3 498.4,202.4 497.5,202 
		495.3,213.5 498.1,214.2 496.1,222.9 488.3,221.2 492.9,197 	"/>
	<polygon class="st9" points="476.1,144.7 479.8,135.4 480.8,132.8 492.8,137.5 491.1,142 488.8,147.8 485,146.3 479.3,144 
		478.6,145.7 	"/>
	<polygon class="st9" points="480.4,233 492.8,232.8 492.9,243.6 480.6,243.8 	"/>
	<polygon class="st9" points="376.3,244.3 376.5,234.5 389.1,234.9 389.3,230.3 400,230.6 399.6,245 	"/>
	<polygon class="st9" points="290.6,115.7 292.9,111.9 304,93.4 324,105.1 330.1,108.6 323.8,119.4 312.6,112.8 311.5,114.2 
		309,112.9 305.6,118.9 319.6,126.7 316.1,133 302.4,123.8 	"/>
	<polygon class="st9" points="389.5,224.3 389.6,218.2 400.3,218.5 400.2,224.6 	"/>
	<polygon class="st9" points="389.6,218.2 389.8,212.2 400.5,212.5 400.3,218.5 	"/>
	<polygon class="st9" points="390.6,199.6 394.7,190.8 400.3,193.4 396.3,202.1 	"/>
	<polygon class="st9" points="264.2,211.1 265.9,204.2 269,205.1 269.1,203.6 269.1,203.3 269.2,203 269.4,202.8 269.6,202.6 
		269.8,202.4 270,202.3 270.3,202.3 270.6,202.3 270.9,202.3 271.1,202.4 271.4,202.5 271.6,202.7 271.7,203 271.8,203.2 
		271.9,203.5 271.9,203.7 271.9,204 271.8,204.3 271,205.6 272.1,205.9 275.5,206.7 277.6,207.2 277.2,208.3 275.7,212.6 
		275.4,213.6 267.2,211.9 	"/>
	<polygon class="st9" points="242.3,252.1 243.5,248.9 244.6,246.2 248,237.7 248.2,237.1 252.3,238 246.6,253 	"/>
	<polygon class="st9" points="283.2,218.1 285.1,210.9 289.2,212 288.5,214.5 289.7,214.9 288.8,218.3 287.4,217.9 287.1,219.1 	"/>
	<polygon class="st9" points="232.4,261.3 233.4,257.9 235.6,258.5 234.7,261.9 	"/>
	<polygon class="st9" points="271.3,316.1 276.9,315.6 277.6,323.7 272.3,324 272,324.1 271.5,318.7 	"/>
	<polygon class="st9" points="294.9,251.9 299.7,251.7 299.9,259.9 299.1,259.9 295.1,260 	"/>
	<polygon class="st9" points="327.6,213.4 331.6,205.7 349.8,215.6 342.6,228.9 337,230.8 	"/>
	<polygon class="st9" points="459.5,300.7 468.5,299.9 478.3,299.1 478.8,309.3 469.8,310.3 472.1,322.9 463.5,324.4 462.6,318.7 	
		"/>
	<polygon class="st9" points="433.3,251.4 448.4,250.9 448.7,260.6 438.6,260.9 439,273.2 434.1,273.3 	"/>
	<polygon class="st9" points="475.4,316.8 480.4,316.7 480.5,321 475.5,321.1 	"/>
	<polygon class="st9" points="452.1,256.3 457.3,256.1 457.6,261.4 452.4,261.6 	"/>
	<polygon class="st9" points="335.2,98.7 336.3,96.5 338,97.2 346.4,101.7 348.6,97.1 350.6,98.1 347.3,103.3 361.3,112.1 
		359.9,114.4 	"/>
	<polygon class="st9" points="363,174.3 364.9,170.7 370.2,173.4 368.3,177 	"/>
	<polygon class="st9" points="382.2,179.3 385.7,171.7 388.7,173 389.2,172.2 390.1,172 391.3,172.4 392.5,173.6 392.5,174.6 
		394.4,175.4 391,183.7 	"/>
	<polygon class="st9" points="273,28.2 275.8,21.6 277.1,22.2 281.3,24.1 278.7,29.9 278.5,30.6 	"/>
	<polygon class="st9" points="297.9,39.3 298.1,38.6 300.8,32.4 306.4,34.7 306.7,34.9 303.6,41.7 	"/>
	<polygon class="st9" points="459.5,126.3 466,118 472.5,121.5 466,129.9 	"/>
	<polygon class="st9" points="465.9,170.3 469,162.4 474.1,164.3 477.2,165.5 478.9,164.2 481.2,160.4 483.8,162.1 481.2,166.3 
		480.7,167.8 477.6,174.9 467.5,170.9 	"/>
	<polygon class="st9" points="517.1,109.7 517.5,105.5 523.7,106.3 524.6,107.4 526,106.3 527.4,99.1 517.4,97.7 517.8,94 
		530.9,95.5 539.6,96.5 536.9,112.2 536.2,112.2 	"/>
	<polygon class="st9" points="519,189.5 520.7,183.2 521,182.1 521.8,179.4 525.5,180.7 524.2,191 	"/>
	<polygon class="st9" points="504.2,185 504.3,184.6 506,178.3 513.4,180.6 513.3,181 520.7,183.2 519,189.5 513.1,187.9 
		506.9,185.9 	"/>
	<polygon class="st9" points="506.9,158.8 509.4,148.2 514.1,149 512,158.5 511.6,160 511.1,159.9 	"/>
	<polygon class="st9" points="493.6,161.8 495.1,155.9 495.2,155.7 504.4,158.2 502.9,164.3 	"/>
	<polygon class="st9" points="459.3,39.8 465.3,39.8 465.3,48.9 459.3,49 	"/>
	<polygon class="st9" points="186,330.3 188.3,323.7 189,321.8 194.3,306.9 198,296.6 198.4,295.4 200.9,288.9 205.3,290.6 
		207.2,291.2 203.7,298.7 199.5,316.8 198.1,321.9 194.9,335 191.5,333.9 189.9,333.3 190.2,331.8 	"/>
	<polygon class="st9" points="455.8,59.9 459.1,56.8 461.6,59.4 458.3,62.5 	"/>
	<path class="st9" d="M39.7,158.9l1.6-6.2l0.7-2.8l1.8-6.8l4.1,1.1l8.2,2.1l1.1,0.3l1.3,0.3l2.9,0.7l5.2,1.4l-2.3,8.5l-0.6,1.6l-2,7
		l-6-1.9l-3.8-1.3l-9.2-3L39.7,158.9z"/>
	<polygon class="st9" points="72.7,41.6 87,41.7 87.1,36.8 90.3,36.8 90.4,34.2 86.3,34 86.3,31.9 85.1,32 84.6,31.3 84.8,28.8 
		85.3,28.2 90.3,28.3 90.5,18.3 90.6,11.7 99.9,10.8 101.8,12.3 101.1,45.9 72.8,46.8 	"/>
	<polygon class="st9" points="63.9,211.6 65.1,197.7 74.6,198.8 73.6,212.5 	"/>
	<polygon class="st9" points="54.9,253.3 71.6,253.8 71.5,258.9 79.9,259.1 81.2,273.7 54.4,273.3 	"/>
	<polygon class="st9" points="39.6,176.5 40.3,173.3 41.2,168.3 42.9,160 52.1,163 51.5,166.3 52.7,167.3 52.4,168.8 50.9,169.4 
		50.6,171.1 49.3,178.7 	"/>
	<polygon class="st9" points="13.3,191 13.9,186.2 14.5,182.1 14.7,180.1 14.9,178.7 16,171.8 23.8,173.3 39.6,176.5 38.8,180.8 
		34.8,180.4 30.3,179.5 27.3,178.9 25.5,180.1 24.7,187.3 25.9,188.5 34.7,189.5 33.9,194 29.8,193.4 23.1,192.3 21.5,192.1 	"/>
	<polygon class="st9" points="134.2,319 134.8,316.2 135.3,313.4 144.7,308.4 146.9,304.7 149.1,301.1 153.6,303.7 156.8,302 
		171.6,294.2 169.7,290.4 172.1,289.2 174.5,288.1 176.5,291.6 189.8,284.6 195.1,286.8 189.4,302.8 179.3,330.8 171.7,328.8 
		156.5,324.8 139.7,320.4 	"/>
	<polygon class="st9" points="298.9,327.3 303.4,326.5 316.2,325 316.7,330.7 317.6,340 311.8,339.6 311.4,339 310.9,337.6 
		310.3,336.7 309.5,336.4 307.1,336.1 305.6,336.5 304.7,337.2 304.2,338.6 304.4,339.9 302.9,342.2 299.3,342.4 299,331.2 	"/>
	<polygon class="st9" points="275.2,298.8 293.8,296.1 295.2,305.5 291.8,305.9 276.3,308.1 276.2,307.6 	"/>
	<polygon class="st9" points="267.2,324.3 272,324.1 272.3,324 273.1,341.3 273.4,345.2 273.5,348.6 271.9,348.6 270.3,348.6 
		270.3,348.2 268.4,348.1 	"/>
	<polygon class="st9" points="416.6,305.4 431.2,302.1 431.8,305.2 433.9,316.3 434.5,318.8 430.5,319.7 428.7,311.3 418.6,313.3 	
		"/>
	<polygon class="st9" points="463.5,324.4 472.1,322.9 475.3,341.8 466.8,343.3 	"/>
	<polygon class="st9" points="402.2,326.5 405.2,325.8 407.2,335.3 408,339.1 405,339.8 	"/>
	<polygon class="st9" points="421.1,330.7 421.8,330.4 427.7,329 429.6,336.4 423.4,337.8 423,335.8 421.9,332 421.5,332.2 	"/>
	<polygon class="st9" points="10.3,212.5 12.1,199.6 13.3,191 21.5,192.1 23.1,192.3 21.4,203.5 22.7,204.5 25,204.5 25.9,205.6 
		30.9,206.3 32,205.1 33.3,197.6 33.9,194 38.7,194.6 36.1,210.5 35,217.4 30.5,217 24.1,216.3 22.4,216.2 21.4,216 11.7,215 
		11,213.7 	"/>
	<polygon class="st9" points="164,210.7 168.2,204.2 173,196.8 179.2,200.8 183.8,203.8 180.7,208.5 179.2,210.9 178.6,211.7 
		178.2,211.4 174.4,217.3 172,215.7 	"/>
	<polygon class="st9" points="144.6,237.2 148.1,231.6 150.2,228.3 152.9,224.3 157.8,216.6 158.2,216.8 159,215.9 159.7,215 
		159.3,214.7 162.8,210 163.5,210.4 164,210.7 172,215.7 169,221 168,222.8 164.7,221.1 160,228.6 160.5,229.1 160.7,229.7 
		160.6,230.3 160.3,231 159.7,231.4 158.9,231.5 158.2,231.4 155.4,235.6 159.2,238.1 154.9,245.9 145,239.4 144.8,238.2 	"/>
	<polygon class="st9" points="55,134.3 57.6,123.6 58.4,120.1 73.6,123.9 69.9,138 	"/>
	<polygon class="st9" points="31.6,247.1 32.9,238.7 38.2,239.2 37.9,243.5 38.3,243.5 38.1,245.4 40.9,247.6 	"/>
	<polygon class="st9" points="17.6,279.5 18.6,274.1 25.5,275.4 24.5,280.7 	"/>
	<polygon class="st9" points="52.2,179.4 55.6,169.5 61.2,168.9 59.7,174.3 58.8,174.1 56.5,180.5 	"/>
	<polygon class="st9" points="18.7,151.8 19,149.4 20.5,138.9 21.3,138.3 22.5,137.6 31.2,139.9 32.4,140.2 33.7,140.5 39.5,142.1 
		43.8,143.2 42,150 41.3,152.8 39.7,158.9 35.6,157.6 25.1,154.1 	"/>
	<polygon class="st9" points="219.4,287.4 222.1,282.7 224,279.4 227.8,281 232.5,269.3 236.8,258.6 239.4,259.6 230.8,281.4 
		229.2,285.6 227.3,290.4 	"/>
	<polygon class="st9" points="35.5,129.5 37.8,121.2 38.4,119.1 43.1,120.3 57.6,123.6 55,134.3 45.3,131.9 	"/>
	<polygon class="st9" points="194.9,335 198.1,321.9 216.2,328.5 222.6,330.9 222.9,330 223.4,328.5 224.5,327.9 226.1,328.4 
		226.7,329.5 227.3,328.8 227.8,328.3 228.7,327.9 229.5,327.6 230.4,327.5 231.4,327.5 231,319.3 238.1,318.8 238.1,317.9 
		238.9,317.9 239.7,315.9 244.4,318.1 244.4,319.1 244.7,323.2 245.3,330.9 245.2,332.7 244.8,334.6 244.5,335.9 244,337.4 
		243.3,338.8 242.2,340.2 241.3,341.5 239.8,342.9 237.8,344.3 236.2,345.2 235.5,345.6 233.8,346.2 231.8,346.6 229.3,346.7 
		226.8,346.5 223.6,345.6 215.8,342.7 201.2,337.4 199.6,336.8 	"/>
	<polygon class="st9" points="491.7,80 495.1,72.4 504.1,74.2 503,82.4 	"/>
	<polygon class="st9" points="446.5,143.6 451.5,136.2 451.9,136.6 456.4,139.7 451.2,147 450.5,146.6 	"/>
	<polygon class="st9" points="466.5,155.6 470.9,144.4 472,141.7 471.1,141.3 471.7,139.9 474.3,133.2 479.8,135.4 476.1,144.7 
		471.1,157.4 468.7,156.4 	"/>
	<polygon class="st9" points="374.8,343.5 384.9,341.3 384.5,339.2 386.7,338.7 387.8,343.6 376.8,346.1 375.4,346.4 	"/>
	<polygon class="st9" points="170.5,176.1 171.1,175.8 171.4,176.6 178.2,173.5 177.9,172.8 178.8,172.3 179.3,173.3 186.4,170.1 
		185.6,168.3 188.1,167.2 192.3,176.5 192.2,176.6 192.7,177.6 191.6,178.1 191.2,177.2 187.7,178.8 188.1,179.7 187.1,180.1 
		186.7,179.1 181,181.7 181.3,182.5 180.4,182.9 179.9,181.9 175.6,183.8 176,184.5 174.6,185.2 	"/>
	<polygon class="st9" points="205.8,185.5 205.9,185.1 217.1,185 216.8,192.8 212,217.1 207.2,214.8 210.4,197.7 212.1,196.4 
		211.2,194.8 209.6,194.8 208.8,195.5 207.8,195.9 206.7,195.7 205.9,194.9 	"/>
</g>
</svg>
