<?xml version="1.0" encoding="utf-8"?>
<!-- Generator: Adobe Illustrator 26.4.1, SVG Export Plug-In . SVG Version: 6.00 Build 0)  -->
<svg version="1.1" xmlns="http://www.w3.org/2000/svg" xmlns:xlink="http://www.w3.org/1999/xlink" x="0px" y="0px"
	 viewBox="0 0 926.6 611.4" style="enable-background:new 0 0 926.6 611.4;" xml:space="preserve">
<style type="text/css">
	.st0{opacity:0.1;}
	.st1{fill:#F2F2F2;}
	.st2{fill:none;stroke:#000000;stroke-width:0.75;}
	.st3{fill:none;}
	.st4{display:none;}
	.st5{display:inline;fill:none;stroke:#000000;stroke-miterlimit:10;}
	.st6{fill:#D9D9D9;}
	.st7{fill:#42468E;}
</style>
<g id="Layer_1" xmlns:ev="http://www.w3.org/2001/xml-events" class="st0">
</g>
<g id="vatten">
	<polyline class="st1" points="873.2,123.3 827.6,128.2 816.6,97.2 764.4,105.9 751.3,109.9 720.1,123 685,139.3 677.2,167.1 
		672.2,173.4 661.8,175.3 510.4,189 505.4,169.3 477.9,173.6 453.6,171.9 401.2,181.8 394.1,187.2 380.2,191.6 382.6,199.1 
		336.6,215.5 333.4,213.4 308.8,220.5 308.7,225.2 298.8,228 180.8,270 176.7,259.9 141.7,271.4 108.6,283.8 98.1,290.4 75.7,303.1 
		73.4,302.6 67,326.7 66.9,329.3 13.6,347.6 14.6,313.4 16.2,313.4 37.2,299.7 46.4,299.6 47.9,294.8 70.9,284.9 94.3,274.9 
		158.4,246.6 170.7,239.1 169.7,236.1 219,221.1 222.8,217.3 223,210.8 222.6,207 198.3,110.7 188.7,75.4 185.2,62.7 215.4,47.4 
		216.7,61.4 216.9,63.9 223.7,91.9 252.5,203.5 254,209.5 259.7,212.9 265.7,211.8 301.8,198.6 303.9,204.5 305.5,205.4 
		329.2,199.6 330,197.9 329.8,189.2 405.1,162.6 459.1,149.6 495.1,145.3 520.7,139.4 531.4,139.2 583.1,126.7 590.8,121.8 
		604.3,118.8 623.6,110.7 641.2,101.6 688.6,92.6 716,86.9 726.7,86.9 732,84.2 739.1,84.4 741.9,82.1 820.6,66.3 853.2,63.5 	"/>
	<polygon class="st1" points="133.2,9.1 210.2,9.1 212.9,23.8 211.2,23.9 214.9,38.2 215.4,47.5 185.2,62.8 177.7,34.1 136.5,38.6 	
		"/>
	<polyline class="st1" points="394.5,381.5 396.4,383.5 396.3,386.3 394.3,388.2 391.6,388.1 389.7,386.2 389.7,383.4 391.7,381.5 
		394.5,381.5 	"/>
</g>
<g id="Vägar" class="st0">
	<polyline class="st2" points="609,105.3 610.6,107.8 613,113.5 	"/>
	<polyline class="st2" points="381.7,142.6 390.7,140.1 423.4,132 457.7,123.5 	"/>
	<polyline class="st2" points="287.2,317.1 271.2,268 269.6,263 	"/>
	<line class="st2" x1="398.4" y1="364.1" x2="371" y2="362.8"/>
	<polyline class="st2" points="433.6,354.2 427.2,358.3 421.8,361.6 416.4,363.2 410.7,363.5 398.4,364.1 	"/>
	<line class="st2" x1="161.9" y1="466.7" x2="200.6" y2="565.1"/>
	<polyline class="st2" points="667.3,413.2 670.8,405.2 671.8,403 	"/>
	<line class="st2" x1="209.5" y1="350.7" x2="287.2" y2="317.1"/>
	<polyline class="st2" points="590.2,99.4 596.9,97.7 600.1,97.7 603.8,98.9 606.8,101.8 609,105.3 	"/>
	<polyline class="st2" points="158.5,232.1 137.2,241.5 117.7,249.2 108.6,254.3 	"/>
	<polyline class="st2" points="514.8,275.1 545.4,270.7 617.6,262.1 630.2,260.1 	"/>
	<polyline class="st2" points="371,362.8 363.7,361.8 356.9,359 	"/>
	<polyline class="st2" points="702.9,499 710.6,455.4 714.7,431.5 	"/>
	<polyline class="st2" points="621.5,194.6 623.7,209.4 628.1,247.5 630.2,260.1 	"/>
	<polyline class="st2" points="118.7,329.6 121.1,340.6 121.9,344 128.7,374.1 161.9,466.7 	"/>
	<line class="st2" x1="881.2" y1="483.9" x2="893.5" y2="482.4"/>
	<polyline class="st2" points="330.5,255.5 342.4,301.1 343.2,304.1 354.7,348.2 355.7,352.3 356.9,359 	"/>
	<polyline class="st2" points="323.6,454.6 320.2,457.9 315.9,459.8 311.2,460.8 300.8,460.9 	"/>
	<polyline class="st2" points="348.1,473.2 350.3,458 350.8,454.5 353.1,450.5 	"/>
	<polyline class="st2" points="707.9,582.2 743.2,569.6 764.1,558.5 770.6,552.6 825.3,497.8 	"/>
	<line class="st2" x1="166" y1="228.7" x2="158.5" y2="232.1"/>
	<polyline class="st2" points="485.1,137.6 466.2,138.9 435.4,145.5 402,154.1 394.7,155.9 343.2,170.6 331.4,173.9 326.7,175.3 
		311.1,179.8 	"/>
	<polyline class="st2" points="634.2,589.5 634,580.1 637.6,517.5 640.1,493.2 640.7,483.4 643.9,429.2 643.8,419.9 642.5,412.1 
		642.3,410.9 640.9,407.6 639.9,405 	"/>
	<polyline class="st2" points="350.8,454.5 323.6,454.6 325.2,379.1 	"/>
	<line class="st2" x1="541.5" y1="581.1" x2="541.6" y2="588"/>
	<polyline class="st2" points="854.5,563.3 847.1,532.6 841.9,513.6 833.5,504.8 825.3,497.8 	"/>
	<polyline class="st2" points="613,113.5 613.6,119.4 620.4,185 	"/>
	<polyline class="st2" points="630.2,260.1 631.9,271.4 630.6,292.5 629.7,313.3 629.7,313.7 628.4,347.6 626.5,364.7 627.3,370.8 
		629.7,381.8 631.6,386.1 635.2,394.7 	"/>
	<polyline class="st2" points="166,228.7 197.4,217 198.6,215.9 199.2,214.3 199.5,213.1 199.5,211.6 188.8,171.3 187.4,169.6 
		184.8,168.7 177.6,170.3 158.1,174.8 154.9,177.7 154.5,182 166,228.7 	"/>
	<polyline class="st2" points="342.4,301.1 351.5,299.6 432.8,286.3 468.6,283.4 507.8,280 514.8,275.1 	"/>
	<line class="st2" x1="639.9" y1="405" x2="635.2" y2="394.7"/>
	<line class="st2" x1="108.6" y1="254.3" x2="101.6" y2="257.8"/>
	<polyline class="st2" points="325.2,379.1 325.3,375.4 325.5,362.6 	"/>
	<polyline class="st2" points="499.1,206.1 497.5,197.5 493.1,177.5 	"/>
	<line class="st2" x1="59.9" y1="567.3" x2="185" y2="524.4"/>
	<polyline class="st2" points="321.2,160.4 327,157.9 381.7,142.6 	"/>
	<polyline class="st2" points="480.5,127 507.3,120.2 530.8,114.3 590.2,99.4 	"/>
	<polyline class="st2" points="640.1,493.2 646.1,493.4 670.2,494.4 702.9,499 	"/>
	<polyline class="st2" points="731.5,437.2 714.7,431.5 705.9,428 667.3,413.2 663.6,411.8 650.7,410.6 642.3,410.9 	"/>
	<line class="st2" x1="128.7" y1="374.1" x2="199.5" y2="354.1"/>
	<line class="st2" x1="327.8" y1="245.2" x2="330.5" y2="255.5"/>
	<polyline class="st2" points="731.5,437.2 735.9,437.1 738.2,434.8 742.8,424.1 746.9,398.6 750,378.3 750.6,363.8 750.3,346.1 
		749.4,336.2 749,331.6 747.5,322.9 744.5,310.7 743.1,295.2 742.6,265.6 742.8,252.9 	"/>
	<line class="st2" x1="493.1" y1="177.5" x2="486.8" y2="143.6"/>
	<polyline class="st2" points="620.4,185 620.6,186.7 621.5,194.6 	"/>
	<line class="st2" x1="20" y1="403.5" x2="128.7" y2="374.1"/>
	<polyline class="st2" points="307.3,367.7 310.4,365.2 312.6,363.7 315.2,363 319.2,362.5 325.5,362.6 333.4,362.6 339.5,362 
		345.8,360.6 351.2,359.5 356.9,359 	"/>
	<polyline class="st2" points="308.5,171.5 311.6,167.9 314.9,164.8 321.2,160.4 	"/>
	<path class="st2" d="M502,206.1"/>
	<path class="st2" d="M502.7,214.2"/>
	<polyline class="st2" points="904.8,249.5 890.3,249.9 878.8,250.3 813.1,250.4 797.7,250.9 765,251.8 742.8,252.9 735.6,252.8 
		728.9,253.3 644.3,258.5 630.2,260.1 	"/>
	<polyline class="st2" points="486.8,143.6 486.3,141.8 484.1,134 	"/>
	<polyline class="st2" points="353.1,450.5 350.7,444.9 346,439.5 340.9,428.7 338.4,420.1 338.1,410.1 341,400.4 345.4,393.1 
		348.1,387.7 348,383.4 346.2,380.5 341.6,378.9 333.5,379.1 325.2,379.1 	"/>
	<polyline class="st2" points="457.7,123.5 466.3,121.3 472.3,121.2 476.7,122.4 478.8,124.1 480.5,127 	"/>
	<polyline class="st2" points="515.8,354.4 522.5,357.2 610.2,385.4 616.5,385.9 621.6,384.9 629.7,381.8 	"/>
	<polyline class="st2" points="515.8,354.4 437.9,354.1 433.6,354.2 	"/>
	<polyline class="st2" points="300.4,470.5 300.8,460.9 301.2,448.7 302,427 303.3,376.3 304.9,371.4 307.3,367.7 	"/>
	<line class="st2" x1="484.1" y1="134" x2="480.5" y2="127"/>
	<line class="st2" x1="224.4" y1="452.3" x2="240.4" y2="505.4"/>
	<polyline class="st2" points="825.3,497.8 831.7,493 839.7,490.1 881.2,483.9 	"/>
	<path class="st2" d="M605.8,113.6"/>
	<polyline class="st2" points="287.2,317.1 296.7,350.6 299.9,357.4 307.3,367.7 	"/>
	<polyline class="st2" points="25.3,236 23.8,232.9 18.6,228.8 17.2,226.1 17.1,225.9 	"/>
	<polyline class="st2" points="389.6,135.5 390.7,140.1 392,145.3 392.3,146.9 393.4,150.8 393.7,152.3 394.7,155.9 	"/>
	<path class="st2" d="M505.8,195.8"/>
	<polyline class="st2" points="517.4,122.8 517.2,121.9 567.9,109.2 589.5,103.8 589.8,104.9 590,105.8 555.6,114.4 517.7,123.8 
		517.4,122.8 	"/>
	<polyline class="st2" points="199.5,354.1 204.3,352.6 209.5,350.7 	"/>
	<polyline class="st2" points="512.4,312.5 515.4,350 515.8,354.4 	"/>
	<polyline class="st2" points="300.4,470.5 315.4,473.3 348.1,473.2 353.6,473.1 	"/>
	<polyline class="st2" points="825.3,497.8 814.7,490.4 803.6,482.7 749.7,446 735.9,437.1 	"/>
	<line class="st2" x1="289.7" y1="487" x2="240.4" y2="505.4"/>
	<polyline class="st2" points="289.7,487 292.7,479.7 300.4,470.5 	"/>
	<polyline class="st2" points="83,308.2 79.5,327.3 100.5,319.9 	"/>
	<polyline class="st2" points="80.8,308.2 69.1,304.8 54.8,298.3 37,295.6 	"/>
	<line class="st2" x1="165.4" y1="119.5" x2="168.7" y2="127.7"/>
	<polyline class="st2" points="163.3,235.3 218.1,217.2 220,214.6 	"/>
	<line class="st2" x1="379.6" y1="457" x2="374.3" y2="457.2"/>
	<polyline class="st2" points="37,295.6 31.9,285.3 30.5,278.8 	"/>
	<polyline class="st2" points="105.7,309.1 83,308.2 80.8,308.2 	"/>
	<polyline class="st2" points="311.1,179.8 304.4,191.7 273,205.9 267.7,207.4 260.8,209.8 	"/>
	<polyline class="st2" points="749.7,446 745.7,450.5 743.6,454.9 740,459 736.4,467.5 736.7,472.9 	"/>
	<polyline class="st2" points="617.3,97.5 605.3,92.4 600.9,91.4 595.2,91.6 586.5,93.7 	"/>
	<polyline class="st2" points="507.8,280 508.9,285.4 512.4,312.5 	"/>
	<polyline class="st2" points="100.5,319.9 105.4,313.3 105.7,309.1 	"/>
	<polyline class="st2" points="421.8,449.5 429.8,476.9 425.2,555.5 422.8,594.8 	"/>
	<polyline class="st2" points="723.3,505.3 724,503.1 726.7,494.5 726.4,486.7 724.1,477.8 721.4,471.1 722.8,464.8 	"/>
	<line class="st2" x1="199.2" y1="214.3" x2="220" y2="214.6"/>
	<polyline class="st2" points="526.6,408.5 532.3,439.2 536.2,467.4 536.6,472.6 537.4,479.3 538.5,496.8 541.5,581.1 	"/>
	<line class="st2" x1="364.7" y1="457.6" x2="370.1" y2="457.4"/>
	<line class="st2" x1="499.1" y1="206.1" x2="507.8" y2="280"/>
	<polyline class="st2" points="432.8,286.3 432.9,290.2 432.9,293 433.6,352.2 433.6,354.2 	"/>
	<line class="st2" x1="161.9" y1="466.7" x2="224.4" y2="452.3"/>
	<polyline class="st2" points="515.8,354.4 518.4,367 526.6,408.5 	"/>
	<line class="st2" x1="512.4" y1="312.5" x2="551.9" y2="310.3"/>
	<polyline class="st2" points="423.6,224.5 424.4,229.7 432.8,286.3 	"/>
	<polyline class="st2" points="743.6,454.9 739.5,453 731.2,453.3 725.5,455.6 720.9,458.7 718.2,461.2 	"/>
	<polyline class="st2" points="389.6,135.5 463.9,116.5 473.1,116.1 482.4,118.4 487.6,120.6 492,118.6 	"/>
	<line class="st2" x1="145" y1="70.4" x2="147.4" y2="77"/>
	<polyline class="st2" points="432.3,413.4 431.9,424.2 429.4,434.3 421.8,449.5 412,460 401.3,467 384.3,472.1 353.6,473.1 	"/>
	<line class="st2" x1="224.4" y1="452.3" x2="204.3" y2="352.6"/>
	<polyline class="st2" points="432.3,413.4 492.3,410.8 526.6,408.5 	"/>
	<polyline class="st2" points="224.4,452.3 292.6,448.8 301.2,448.7 	"/>
	<line class="st2" x1="398.4" y1="364.1" x2="408.2" y2="370.8"/>
	<polyline class="st2" points="500.9,267.9 493.1,223.9 490.7,222.1 	"/>
	<path class="st2" d="M159.6,119.7"/>
	<line class="st2" x1="185" y1="524.4" x2="240.4" y2="505.4"/>
	<path class="st2" d="M551.6,598.8"/>
	<polyline class="st2" points="485.1,137.6 532.1,131.7 605.8,113.6 610.6,107.8 	"/>
	<line class="st2" x1="240.4" y1="505.4" x2="254.9" y2="555.7"/>
	<polyline class="st2" points="596,351.5 589.5,359.6 586.8,365.3 584,376.7 	"/>
	<polyline class="st2" points="551.9,310.2 556.7,311.8 566.6,312.5 581.1,314 591.3,314.9 598.7,317.8 601.2,318.7 605.5,325.8 
		606.9,333.9 605.4,341.7 602.7,346.4 596,351.5 587.4,355.2 579.1,357.3 570.6,358.4 553.2,357.8 515.5,350.6 	"/>
	<line class="st2" x1="163.3" y1="235.3" x2="164.5" y2="239.4"/>
	<line class="st2" x1="114.6" y1="296.7" x2="105.7" y2="309.1"/>
	<polyline class="st2" points="101.6,257.8 93.5,260.4 31.9,285.3 14.7,305.2 	"/>
	<polyline class="st2" points="388.8,132.4 389.6,135.5 366.5,141.5 325.6,151.9 	"/>
	<line class="st2" x1="164.5" y1="239.4" x2="173.7" y2="265.1"/>
	<line class="st2" x1="545.4" y1="270.7" x2="551.9" y2="310.3"/>
	<polyline class="st2" points="408.2,370.8 415.9,376.6 419.6,381.1 424.6,388.6 428.5,397.2 430.7,403.5 432.3,413.4 	"/>
	<polyline class="st2" points="846.4,44.8 811.4,51.8 789.3,57.5 739.1,69.4 713.1,72 689.3,76.9 629.7,90.6 624.5,92 620.4,94.6 
		617.3,97.5 610.6,107.8 	"/>
	<polyline class="st2" points="30.5,278.8 31.5,272.1 31.3,265.6 30.1,263.6 27,261.7 25.5,259.4 25.7,256.8 27.5,253.9 28.2,251.4 
		26.9,249.2 22.6,246.7 21.5,244.5 21.6,242.1 24.6,238.6 25.3,236 	"/>
	<path class="st2" d="M496.8,215.1"/>
	<polyline class="st2" points="13.5,349.5 51.9,336.6 56.3,335.1 74.3,329.1 	"/>
	<polyline class="st2" points="186.3,304.5 188.4,310.1 204.3,352.6 	"/>
	<polyline class="st2" points="433.4,359.9 415.9,376.6 389.8,413.9 366.9,444.4 350.8,454.5 	"/>
	<polyline class="st2" points="294,551.9 291.4,512.4 289.7,487 	"/>
	<line class="st2" x1="158.5" y1="232.1" x2="163.3" y2="235.3"/>
	<line class="st2" x1="74.3" y1="329.1" x2="79.5" y2="327.3"/>
	<polyline class="st2" points="39.2,496.5 152.9,468.9 161.9,466.7 	"/>
	<line class="st2" x1="220" y1="214.6" x2="221.5" y2="214.5"/>
	<polyline class="st2" points="221.5,214.5 225.3,214.9 230.9,215.5 235.3,215.7 240.5,215.3 245.1,214.5 249.6,213.8 254.6,212.3 
		260.8,209.8 	"/>
	<line class="st2" x1="287.2" y1="317.1" x2="342.4" y2="301.1"/>
	<polyline class="st2" points="713.7,457.7 718.2,461.2 722.8,464.8 723.1,465.1 725.8,467 736.7,472.9 744.1,481.9 749.3,494.8 
		748.7,508.5 745.3,517.6 744.2,520.4 	"/>
	<polyline class="st2" points="173.7,265.1 176.9,274.7 182,290.9 183.2,294.9 186.3,304.5 	"/>
	<polyline class="st2" points="502.7,214.2 513,212.9 519,212.1 594.3,203.2 621.5,194.6 	"/>
	<line class="st2" x1="118.7" y1="329.6" x2="117.9" y2="320.1"/>
	<line class="st2" x1="430.5" y1="216.4" x2="397" y2="221.1"/>
	<polyline class="st2" points="291.2,111.4 303.3,153.4 308.5,171.5 	"/>
	<polyline class="st2" points="502,206.1 495.6,206.9 488.8,207.9 430.5,216.4 	"/>
	<polyline class="st2" points="327.8,245.2 341.8,241.9 423.6,224.5 490.1,215.9 496.8,215.1 502.7,214.2 	"/>
	<polyline class="st2" points="324.9,233.4 312.3,236.3 274.5,248.6 256.3,254.7 246.6,258.8 237.2,263.6 224.1,271 202.4,283.5 
		183.2,294.9 174.4,299.9 164.2,304.1 142.7,311.5 135.3,314.1 130.4,315.8 126.2,317.3 117.9,320.1 108.4,323.7 102.5,326 
		92.7,329.9 76.9,336.1 13.3,358.3 	"/>
	<polyline class="st2" points="13,365.6 101.8,335.3 105.2,334.2 111.4,332.1 118.7,329.6 	"/>
	<line class="st2" x1="311.1" y1="179.8" x2="314.9" y2="193.1"/>
	<line class="st2" x1="308.5" y1="171.5" x2="311.1" y2="179.8"/>
	<line class="st2" x1="113.8" y1="294.5" x2="105" y2="266.7"/>
	<line class="st2" x1="66.2" y1="145.2" x2="63" y2="133.8"/>
	<polyline class="st2" points="621.5,194.6 639.6,193.7 658.6,191.5 691.1,184.1 698.5,181 729.7,168.1 733.8,166.4 750.3,159.4 
		757.2,157.3 770.7,153.3 791.5,150.2 812.5,148.2 870.6,140.3 	"/>
	<polyline class="st2" points="283.5,55.2 295.7,50.1 299.3,48.4 305.1,45.7 315.9,40.3 323.7,35.6 328.7,30.1 331.8,24.6 
		333.1,20.1 333.3,13.9 333.1,7.5 333,3.2 	"/>
	<line class="st2" x1="314.9" y1="193.1" x2="321.6" y2="219.5"/>
	<polyline class="st2" points="66.2,145.2 79.9,141.4 91.3,136.9 105.2,130.5 139.7,112.4 147.4,108.3 172,96.1 182.7,90.7 
		190.7,86.8 	"/>
	<polyline class="st2" points="221.6,73.4 233.1,70.4 246.8,66.8 262.6,61.9 275.2,57.6 	"/>
	<polyline class="st2" points="118.7,329.6 125.3,327 133,324.2 186.3,304.5 198,298.7 218.8,287.3 242,274.4 255.1,267.7 
		269.6,263 292,255.5 315.3,248.2 327.8,245.2 	"/>
	<line class="st2" x1="275.2" y1="57.6" x2="283.5" y2="55.2"/>
	<polyline class="st2" points="63,133.8 61.1,127.7 59.7,122.2 58.9,117.3 55.9,95.7 49.8,55.7 	"/>
	<polyline class="st2" points="359.6,227.1 339.5,230.3 324.9,233.4 	"/>
	<line class="st2" x1="324.9" y1="233.4" x2="327.8" y2="245.2"/>
	<polyline class="st2" points="113.8,294.5 115.7,301.3 116.9,307.9 117.9,320.1 	"/>
	<polyline class="st2" points="321.6,219.5 322.3,223.3 324.9,233.4 	"/>
	<line class="st2" x1="397" y1="221.1" x2="359.6" y2="227.1"/>
	<line class="st2" x1="190.7" y1="86.8" x2="221.6" y2="73.4"/>
	<polyline class="st2" points="621.5,194.6 592.2,195.9 512.4,204.9 502,206.1 	"/>
	<polyline class="st2" points="29.1,152.6 45.2,149.6 66.2,145.2 	"/>
	<polyline class="st2" points="277.4,56.5 285.2,88.4 291.2,111.4 	"/>
	<line class="st2" x1="105" y1="266.7" x2="101.6" y2="257.8"/>
	<polyline class="st2" points="101.6,257.8 92.5,218.8 91.3,214.4 90.4,211.1 80,182.4 70.4,157.5 66.2,145.2 	"/>
	<polygon class="st2" points="708.2,499 712.8,469.2 718.2,461.2 720.9,458.7 725.5,455.6 731.2,453.3 739.5,453 743.6,454.9 
		750.6,459.1 747,463.8 745.9,468.2 746.2,471.8 747.8,474.6 750.9,476.6 775.4,494.9 751.3,523.3 745.3,517.6 724,503.1 	"/>
	<polyline class="st2" points="784.4,21.2 808.5,20.8 844.8,18.6 	"/>
	<polyline class="st2" points="814.5,16.9 802.2,16.1 675.5,8.2 663.2,7.6 649.7,7.5 631.7,8.3 615.6,10.1 598.7,12.4 574.1,16.9 
		532.6,26.2 472.9,41.6 395.8,61.1 	"/>
	<polyline class="st2" points="745.4,18.7 718.7,16.7 701.8,16 695.5,15.7 663.9,14.9 651.4,15 638.6,15.5 613.5,18 596.8,20.5 
		581.4,23.1 560.8,27.7 531.5,34.5 475,48.8 397.7,68.3 	"/>
	<polyline class="st2" points="700.7,20.7 685.9,20.8 675.5,21.1 664,21.5 662,21.6 652.1,22.1 635.4,23.5 624.7,24.8 612,26.8 
		600.7,28.6 579.1,33.1 534.5,44.1 476.7,58.8 400.4,78.8 	"/>
	<line class="st2" x1="745.4" y1="18.7" x2="784.4" y2="21.2"/>
	<polyline class="st2" points="700.7,20.7 714.4,20.3 723.7,19.8 745.4,18.7 	"/>
	<polyline class="st2" points="849.2,22 819.4,23.4 806.3,24.2 776.4,25.1 735.8,27.8 725.1,29 677.4,36.9 635.7,45.7 616.2,50.4 
		541.4,68.4 483.9,82.8 406.8,102.2 	"/>
	<polyline class="st2" points="700.7,20.7 679.1,23.1 662.4,25.6 620,32.8 595.2,37.5 575.1,42.2 574.2,42.4 535.2,51.4 479.1,65.7 
		402,84.7 	"/>
	<polyline class="st2" points="784.4,21.2 742.5,22.3 718.9,25.2 668,32.4 643.4,37.3 623.9,41 602.2,45.9 575.8,52 574.8,52.2 
		573.4,52.6 537.9,61.4 481.9,75.3 405.2,95.6 	"/>
	<polygon class="st3" points="389.7,383.4 391.7,381.5 394.5,381.5 396.4,383.5 396.3,386.3 394.3,388.2 391.6,388.1 389.7,386.2 	
		"/>
</g>
<g id="Layer_6" class="st4">
	<rect x="-3.3" y="9.1" class="st5" width="908.5" height="538.2"/>
</g>
<g id="Byggnader">
	<polygon class="st6" points="152.8,323.9 163.3,320.1 167,333.1 164.5,333.9 164,332.4 155.9,335 	"/>
	<polygon class="st6" points="328.8,557.3 332.7,544.4 333.1,543.1 346.5,547.6 353.2,532.2 359.5,534.8 352.2,552.4 347.3,564 	"/>
	<polygon class="st6" points="449.5,371.3 460.2,371.2 460.5,395.6 449.7,395.7 	"/>
	<path class="st6" d="M474.5,290.3l27.2-2.2l2.1,3.1l4,50.8l0.4,5.5l-1.5,2l-7,0.2l-10.1,0.3l-10.7,0.3l0-8.1l-0.1-18.1l-3.4,0.1
		l-0.3-13L474.5,290.3z"/>
	<polygon class="st6" points="159.7,348.4 170.5,345.2 170.8,346.4 173.1,354.5 162.4,357.7 	"/>
	<polygon class="st6" points="461.6,336.2 475.7,336.1 475.4,324.1 478.8,324.1 478.9,342.2 479,350.2 470.3,350.5 461.7,350.7 
		461.6,342.1 	"/>
	<polygon class="st6" points="498.1,92.9 500.1,92.4 541.8,82.3 551,79.9 551.4,81.6 580.6,74.3 582.4,81.5 517.3,97.9 513.5,98.8 
		510,99.7 503.1,101.4 505,109 512,107.2 515.4,106.4 585.3,88.8 586.5,93.7 586.6,94.1 516.9,111.7 514.9,112.2 513.4,112.6 
		505.7,114.5 503.8,115 	"/>
	<polygon class="st6" points="230.4,527.4 234.5,526.2 233.5,522.4 242.6,519.6 245.8,529.9 239.1,531.7 236.6,532.4 235.1,532.8 
		234.6,530.8 231.5,531.6 	"/>
	<polygon class="st6" points="158.8,450.5 167.7,448 168.4,451.1 178.9,448.6 178.1,445.2 182.8,443.9 184.2,449.6 186.2,458.1 
		162.9,463.7 	"/>
	<polygon class="st6" points="732.7,534.1 734.2,531.3 739.6,521 763.9,548.9 763,552.3 741.3,564 734.9,550.5 733,546.4 
		735.7,544.9 738.6,545.4 740.9,548.6 746.6,546.2 736.6,534.9 735.7,536 733.8,535.6 	"/>
	<polygon class="st6" points="446.8,229.7 464.5,226.6 466.7,239.1 448.9,242.1 	"/>
	<polygon class="st6" points="443.2,253.4 450.7,252.1 452.6,262.7 462.3,261 460.5,250.6 470.3,248.9 471.4,255.2 474.4,272.5 
		447.3,277.2 	"/>
	<polygon class="st6" points="380.3,191.9 393.4,187.8 395.7,195.1 382.6,199.1 	"/>
	<polygon class="st6" points="523.7,369.8 525.7,369.2 526.8,366.1 549.6,373.3 547,386.4 539.1,383.9 541.3,395.1 545.5,395.2 
		546.3,390.4 548.7,391.1 548.6,401 545.3,400.8 540.9,400.6 531.8,402 	"/>
	<polygon class="st6" points="208.9,360.5 212.5,359.1 211.1,355.4 233.6,346.4 236.7,356 237.7,359.1 224.9,364.3 231.6,398.1 
		217.5,401.3 	"/>
	<polygon class="st6" points="233.6,346.4 260,335.9 265.8,360.3 267.3,366.7 271.7,385.1 255.3,389.7 253.8,390.1 244.6,353.1 
		236.7,356 	"/>
	<polygon class="st6" points="66.1,355.3 94.2,345.9 97.1,354.8 69.2,363.9 	"/>
	<polygon class="st6" points="66.5,376.7 69.2,376.1 67,366.7 69.8,365.7 73.4,364.3 75,369 82.7,367.1 83.3,369.8 86.2,381.6 
		69.6,386.2 	"/>
	<polygon class="st6" points="43,499.4 57.7,495.5 57.9,496 58,496.5 59.9,503.4 54.5,504.7 45.8,507.3 	"/>
	<polygon class="st6" points="22.3,413.1 23.6,411.7 24.9,410.2 34.9,407.5 43.2,405.3 47.6,420 45.9,420.4 43.6,419.1 40.1,419.9 
		37.2,425 39.1,432 44,430.7 45.4,435.5 28.7,439.3 24.3,421.5 	"/>
	<polygon class="st6" points="53.6,371.6 58.3,369.8 59.8,369.3 62.9,377.6 66.5,376.7 69.6,386.2 62.7,388.1 58.1,376.9 
		56.2,377.1 	"/>
	<polygon class="st6" points="339.3,252.6 339.7,250.3 383.3,240.5 385.8,251.5 373.4,254.3 374.3,258.2 368.6,259.5 367.7,255.8 
		356.8,258.2 358.2,264.1 355.8,264.6 357.3,271.2 364.8,269.5 365.9,274.3 374.6,272.3 378.4,290 353,295.3 351.1,294.6 	"/>
	<polygon class="st6" points="101.9,108 107.4,106.4 107.8,108 102.3,109.6 	"/>
	<polygon class="st6" points="439.4,460.1 453.5,460.2 482.5,460.4 482.6,469.5 482.5,470.6 482,471.6 481.2,472.4 481.2,474.1 
		481.2,475.6 469.7,475.5 469.7,474 469.7,472.9 469.8,469.5 455.8,469.3 455.8,472.7 455.8,473.8 455.7,475.2 454.7,475.3 
		454.7,477.8 439.1,479.4 439.2,473.7 	"/>
	<polygon class="st6" points="710.6,523.4 712.9,516.9 715.3,510.6 722.4,513 719.7,520.4 719.2,521.8 715.8,520.5 714.2,524.7 	"/>
	<polygon class="st6" points="605,460.8 605.6,441.5 611.9,441.9 620.5,442.3 619.5,455.4 619.1,461.5 	"/>
	<polygon class="st6" points="234.3,397.5 245.7,393.6 255.2,393.2 255.3,389.7 271.7,385.1 273,390.6 291.4,390.1 291.1,410 
		276.7,409.9 276.2,401.2 265.4,401.2 265.1,399.8 263.5,399.7 263.5,401.1 259,401.5 261.2,410.9 238.2,415.8 	"/>
	<polygon class="st6" points="545.4,510.5 556.8,510.8 557.6,533.6 560.9,533.5 561.2,541.6 557.8,541.7 558.8,571.4 579.4,571.5 
		580.3,511.4 596.2,511.9 594,572.1 611.9,572.7 614.1,512.4 624,512.8 622.3,577.6 621.9,584.6 550.7,582.3 550.4,579.1 546.8,579 
			"/>
	<polygon class="st6" points="601.7,511.9 602.8,485.3 606.1,485.4 612.2,485.7 611.9,491.8 621.6,492.2 621.8,486.1 630.4,486.4 
		629.3,513 624,512.8 614.1,512.4 	"/>
	<polygon class="st6" points="87.6,393.2 94.7,391.3 95.8,391 103.2,389 105.1,395.7 108.4,407.1 105,408.2 103.5,402.7 90.9,406.6 
		89.3,400.2 	"/>
	<polygon class="st6" points="312.3,485.3 321.7,485.1 331.6,484.9 331.3,493.8 331.2,501 330.7,521.5 323.9,521.1 324.8,500 
		323,498.3 319.6,498.5 319.6,500.9 314.3,501.4 314.1,499.9 313.3,493.1 	"/>
	<polygon class="st6" points="438.7,541.1 454.3,539.4 458.4,538.9 490.8,535.3 491.1,546 454.3,547.7 453.8,551.9 456.6,552.1 
		456.6,555.4 438.5,556.2 	"/>
	<polygon class="st6" points="64.6,568.8 80.8,563.3 83.7,571.6 85.5,576.3 79.1,578.5 79.9,581.4 69.4,584.9 64.9,570 	"/>
	<polygon class="st6" points="184.2,449.6 190.5,448 185.2,427.5 200.7,423.4 215,419.5 221.5,449.6 186.2,458.1 	"/>
	<polygon class="st6" points="72.4,397.4 87.6,393.2 89.3,400.2 90.9,406.6 93.1,415.2 87.8,417 85,404.5 74.3,407.4 	"/>
	<polygon class="st6" points="362.2,524.7 364.2,513 386.4,513.5 387.9,496.7 382.8,496.6 381.2,498.7 377.6,498.7 377.8,496.2 
		378.7,483.8 398.3,483.4 397.4,497.6 396.6,508.7 396.5,510.2 392.5,515.5 391.6,520.3 390.7,527.5 	"/>
	<polygon class="st6" points="354.2,309.9 355.7,304.9 368.2,303.1 371.1,302.7 372.6,317.3 366.8,317.8 367.9,321.8 371,322.9 
		371.8,325.2 370.1,328.4 371,332 373.3,331.9 374.9,337.8 375.1,341.5 375.4,350.8 368.2,350.8 364.8,347.5 363.9,344.3 362.1,338 
		361.2,334.5 359,326.7 357,319.6 355.2,313.3 	"/>
	<polygon class="st6" points="349.2,484.5 361.4,484.2 360.8,496.6 360.7,499.7 360.6,502.7 360.1,512.9 364.2,513 362.2,524.7 
		361.6,528 348.3,527.9 348.9,501.4 348.9,499.3 	"/>
	<polygon class="st6" points="205.5,521 213.4,518.4 215.9,527.7 217.7,534.5 222.8,533.4 224.7,540.6 222.4,541.2 217.3,542.4 
		211.5,543.7 210.9,541.5 209.2,534.8 207.6,528.8 	"/>
	<polygon class="st6" points="648.4,487.6 651.9,424.9 658.6,422.5 666.9,419.5 709.6,435.8 704.4,461.4 690.9,458.4 693.5,444.8 
		666.8,434.2 663.3,488.5 	"/>
	<polygon class="st6" points="890.2,540.4 902.9,538.9 905.7,553.9 904.5,556.6 893.4,557.9 891.1,545.4 	"/>
	<polygon class="st6" points="858.7,545.8 872.2,543.7 873.4,549.6 875.5,560.1 863.6,561.6 861.4,559.4 	"/>
	<polygon class="st6" points="857.5,259.7 877.2,259.6 877.6,272.1 873.7,272.3 873.5,267 857.7,267 	"/>
	<path class="st6" d="M639.8,275.3l1.3-0.2l3-0.4l0-4.1l91.6-9.4l-2.1,76.9l0,0.8l-79.6-3l0.1,14.8l-3.6-0.4l-0.8,25.1l4,0.2
		l-0.3,6.1l-4.2-0.2l-0.1,3.3l-3.8-0.3l0-4.2l-3.7-0.3l0.1-5.4l-3.9-0.3l0.1-9.1L639.8,275.3z"/>
	<polygon class="st6" points="376.2,49.3 524.1,12.3 541.8,82.3 498.1,92.9 393.6,119.1 391.4,110.5 387.3,93.9 383,76.8 
		378.5,59.1 	"/>
	<polygon class="st6" points="131.3,459.6 138.2,458.1 135.6,449.9 146.1,446.5 153.8,466.3 149.4,467.3 133.9,470.9 	"/>
	<polygon class="st6" points="260,335.9 285.3,325.7 290.1,342.3 281.9,343.7 279.4,344.1 277.9,337.8 268.7,340.5 274.9,357.7 
		265.8,360.3 	"/>
	<polygon class="st6" points="167.7,335.5 173.8,333.6 177.2,344.4 182.9,342.4 185.1,341.6 182.9,335.2 192.4,332.3 197,344.8 
		195.3,347.9 186.5,350.5 179.8,352.5 173.1,354.5 170.8,346.4 170.5,345.2 	"/>
	<polygon class="st6" points="103.2,389 115.1,385.8 115.3,385.7 122,383.9 124.4,390.2 128.4,400.4 128.5,400.8 131.6,408.8 
		125.2,410.7 120.2,412.3 114.9,398.1 110.4,399.7 111.8,405.3 111.6,408.9 109.2,409.8 108.4,407.1 105.1,395.7 	"/>
	<polygon class="st6" points="437.4,414.5 451.2,414.1 486.2,412.9 487.3,423 452.1,423.5 452.7,431.5 453,435.6 472.8,435.7 
		472.7,438 486.5,438.8 486.6,436.3 508.3,437 508.9,443.7 494.1,443.1 453.1,441.2 438.5,440.6 438.1,432 	"/>
	<polygon class="st6" points="60.6,400.6 72.4,397.4 74.3,407.4 64,410.2 	"/>
	<polygon class="st6" points="808,231.9 824.8,231 822.4,187.9 831.1,187.8 831.8,199 830.5,199 831.1,211.5 832.1,240.6 
		825.7,240.9 815.4,241.4 808.6,241.7 	"/>
	<polygon class="st6" points="709.1,515.6 711.2,509.2 715.3,510.6 712.9,516.9 	"/>
	<polygon class="st6" points="400.3,327.6 408.3,327.5 408.7,339.2 412.6,339.4 412.9,338.6 413.3,338 413.8,337.3 414.4,336.8 
		415,336.3 415.6,336.1 416.4,336 417.1,336.1 417.8,336.2 418.4,336.7 419.1,337.2 419.5,337.9 419.9,338.5 419.9,338.9 
		422.4,338.9 423.1,313.5 432.5,313 432.7,350.9 400.4,351.1 	"/>
	<polygon class="st6" points="511.9,291.6 513.9,288.3 539.6,284.7 542.4,286 544.6,301.9 543.1,304.5 516.8,309.3 513.3,307.1 	"/>
	<polygon class="st6" points="136.1,558.9 139.1,557.7 140.5,561.5 143.8,570.5 152.4,567.4 149.1,558.4 153.3,556.9 156.6,566.2 
		160.1,576.1 144.3,581.4 	"/>
	<polygon class="st6" points="134.6,545.2 147.6,540.8 153.3,556.9 149.1,558.4 140.5,561.5 139.1,557.7 138,554.7 	"/>
	<polygon class="st6" points="43.2,405.3 52.1,402.9 60.6,400.6 64,410.2 65.3,413.9 67.1,418.8 71,429.8 56.4,433.1 55.3,427.4 
		57.7,426.8 60.6,426 62.1,424 59.1,414.3 50.7,417 49.5,419.4 47.6,420 	"/>
	<polygon class="st6" points="98.9,438.4 105.5,436.7 110.8,435.3 108.2,425 113.3,423.7 115.4,431 117.6,438.9 100.2,443.5 	"/>
	<polygon class="st6" points="57.6,545.9 67.9,542.5 69.3,542.1 70.8,547.6 86.8,542.5 91,554.6 78.2,559.1 62.9,564.5 60.2,555.2 	
		"/>
	<polygon class="st6" points="118.5,579.2 126.1,576.6 129.4,586.3 122,588.9 	"/>
	<polygon class="st6" points="104,465.5 113.3,463.5 115.9,475.1 106.6,477.2 	"/>
	<polygon class="st6" points="74.3,491.2 87.7,487.9 94.8,511.5 95.7,515.4 82,519.3 80.5,513.2 91.1,510.1 88.1,497.8 76.6,500.6 
		76.2,499.2 	"/>
	<polygon class="st6" points="124.7,548.5 134.6,545.2 138,554.7 128.1,557.8 	"/>
	<polygon class="st6" points="103,555.8 109.6,553.6 113.1,563.2 106.6,565.6 	"/>
	<polygon class="st6" points="96.4,558.1 103,555.8 106.6,565.6 103,566.9 104.6,571.1 101.5,572.3 99.2,566.1 	"/>
	<polygon class="st6" points="83.3,369.8 98,366.2 100.4,377.7 86.2,381.6 	"/>
	<polygon class="st6" points="375.7,574.9 380.1,563.8 383.3,555.6 390.2,557.9 385.9,568.6 408.8,578.8 412.3,589 	"/>
	<polygon class="st6" points="213.4,518.4 225.8,514.2 228.8,523.8 215.9,527.7 	"/>
	<polygon class="st6" points="168.8,387.2 178.2,384.4 181.6,396.1 172.2,398.8 	"/>
	<polygon class="st6" points="200.7,305.5 224.8,296.2 228.8,306.7 230.2,310.3 231.3,313 224.7,315.5 223.4,311.5 212.3,315.7 
		214.6,321.9 208,324.4 	"/>
	<polygon class="st6" points="193.8,308.2 200.7,305.5 208,324.4 214.8,341.7 208,344.5 	"/>
	<polygon class="st6" points="265.8,360.3 274.9,357.7 279.6,355.2 292,355 291.4,390.1 273,390.6 271.7,385.1 279.6,382.9 
		279.3,375.8 277,374.9 276.4,372.6 277.6,370.3 279.5,368.6 279.2,363.2 267.3,366.7 	"/>
	<polygon class="st6" points="347.3,564 352.2,552.4 362.4,556.6 357.7,568 	"/>
	<polygon class="st6" points="436.5,325.1 460.8,324.5 473.1,324.2 473.5,331.1 445.3,332 444.9,342.7 461.6,342.1 461.7,350.7 
		438.5,351.4 436.7,349.3 	"/>
	<polygon class="st6" points="435.4,292.1 459.7,291.2 460.3,307.6 444,308.2 444.3,319.6 460.7,319 460.8,324.5 436.5,325.1 	"/>
	<polygon class="st6" points="541,453.2 548.5,452.7 563.4,451.6 564.2,461.3 550.1,462.4 541.7,463 	"/>
	<polygon class="st6" points="559.4,435.4 574.3,435.2 574.2,445.7 559.6,445.9 559.5,441.4 	"/>
	<polygon class="st6" points="552.2,419.5 564.4,420.5 566.9,397 577.3,400.5 575.6,415.6 574.6,425.8 574.3,432.6 574.3,435.2 
		559.4,435.4 555.5,435.9 	"/>
	<polygon class="st6" points="546.3,390.4 547,386.4 549.6,373.3 582.2,383.7 577.3,400.5 566.9,397 548.7,391.1 	"/>
	<polygon class="st6" points="428.9,232.8 446.8,229.7 448.9,242.1 441.5,243.4 443.2,253.4 447.3,277.2 436.9,279 	"/>
	<path class="st6" d="M149.3,419.8l8.7-2.6l18.1-5.4l1.8-0.5l1.3,6.3l3.6,10.6l-8.2,1.9l-20.6,4.7L149.3,419.8z"/>
	<polygon class="st6" points="224.8,296.2 238.2,291 242.3,301.4 228.8,306.7 	"/>
	<polygon class="st6" points="494.1,455.3 523.4,455.6 522.4,448.2 529.1,447.6 532.6,473 532.8,474.1 518.5,475.3 518.4,474.1 
		518,464.4 500.9,464.3 501.2,474.3 501.2,475.6 494.5,475.8 494.5,474.2 494.5,472.2 494.2,460.4 	"/>
	<polygon class="st6" points="225.8,514.2 238.3,510 240.3,512.1 242.6,519.6 233.5,522.4 228.8,523.8 	"/>
	<polygon class="st6" points="645.9,503.1 662,504.2 659.6,567.3 670.5,566.6 677.3,566.1 678.2,581.1 647.8,582.1 647.9,579.2 
		644,579 	"/>
	<polygon class="st6" points="725.5,379.4 732.9,379.9 731.9,352.5 740.1,352.7 740.2,355.3 743.8,355.6 743.7,363.2 739.5,395.7 
		734.8,395.2 725.6,391.9 	"/>
	<polygon class="st6" points="731.6,416.3 734.8,395.2 739.5,395.7 736.5,418.5 	"/>
	<polygon class="st6" points="665.6,201 676,199.9 676.4,211.4 672.5,211.5 673.3,234.8 679.6,235 679.7,237.2 680,245.7 
		667.8,246.2 	"/>
	<path class="st6" d="M686.8,198.8l41.2-11.4l3.2,26l-10.8,0.8l2.1,29.7l-31.2,1.4l-0.4-8.4l-3.6-25.9L686.8,198.8z"/>
	<polygon class="st6" points="734.6,173.9 747.4,173.4 748.3,192.7 750.5,244.4 737.7,244.9 	"/>
	<polygon class="st6" points="720.3,214.1 731.1,213.4 733.2,243.4 722.4,243.9 	"/>
	<polygon class="st6" points="754.6,475 763,464.1 786.3,480.9 777.4,492.5 	"/>
	<polygon class="st6" points="831.1,187.8 873.7,187.2 874.8,228.3 864.8,228.5 863.8,198.9 831.8,199 	"/>
	<polygon class="st6" points="195.8,526.4 197,523.9 205.5,521 207.6,528.8 209.2,534.8 210.9,541.5 211.5,543.7 217.3,542.4 
		218.6,551.5 219.4,557.9 211.6,559.2 206.8,560 204.8,559 204.1,557.2 203.2,555.1 200.2,547.7 201.4,545.2 204.5,543.4 
		202.1,536.9 200.8,533.3 197.4,531.8 	"/>
	<polygon class="st6" points="619.1,461.5 619.5,455.4 623.4,455.6 624,445.2 621.5,445.1 621.7,442.7 634,443.5 632.8,462.2 	"/>
	<polygon class="st6" points="156.6,566.2 164.6,563.4 178.4,558.7 174.4,545.9 170,533.2 178.9,530.2 181.6,531.8 192,560.9 
		192,563.8 190.6,565.8 160.1,576.1 	"/>
	<polygon class="st6" points="571.3,212.6 586.5,210.7 588,224.4 580.5,225.6 582.2,239 589.2,238.4 590.8,251.4 577.9,253.7 	"/>
	<polygon class="st6" points="54.5,359.4 60.4,357.3 66.1,355.3 69.2,363.9 69.8,365.7 67,366.7 59.8,369.3 58.3,369.8 57.8,368.5 	
		"/>
	<polyline class="st6" points="158.9,118 169.4,113.8 174,125.6 168.7,127.7 163.6,129.8 159.6,119.7 158.9,118 	"/>
	<polygon class="st6" points="69.4,584.9 79.9,581.4 81.9,588.8 91.1,586.1 94.5,598.1 76.4,604.2 74.9,603.1 73.2,597.4 	"/>
	<polygon class="st6" points="90.6,146.1 96.3,143.1 98,146.3 92.4,149.4 	"/>
	<polygon class="st6" points="438.5,440.6 453.1,441.2 494.1,443.1 493.9,448.1 453.6,447.8 453.6,450.1 453.6,451.5 453.5,454.3 
		494.1,455.3 494.2,460.4 482.5,460.4 453.5,460.2 439.4,460.1 439,451.4 438.9,449.5 	"/>
	<polygon class="st6" points="113.3,423.7 123,421.3 120.2,412.3 125.2,410.7 131.6,408.8 137.5,424.1 123.1,428.6 115.4,431 	"/>
	<polygon class="st6" points="362.4,556.6 371.1,535.6 382,537.5 382.7,533 390,533.4 390.7,527.5 406.2,528.9 418.4,530 
		417.5,538.3 415.8,555.2 403.4,554.2 403.8,546.5 387.4,545.2 385.9,549 383.3,555.6 380.1,563.8 	"/>
	<polygon class="st6" points="391.6,520.3 392.5,515.5 396.5,510.2 396.6,508.7 419.5,510 419,518.7 418.4,530 406.2,528.9 
		406.3,521.8 	"/>
	<polygon class="st6" points="169.4,317.9 185,312.2 192.4,332.3 182.9,335.2 179.3,324.8 175.9,325.9 176.8,328.5 173.1,329.6 
		172,326.1 	"/>
	<polygon class="st6" points="806.1,169.8 831.2,169.1 831.5,182.2 806.5,183 	"/>
	<polygon class="st6" points="543.1,215.9 571.3,212.6 577.9,253.7 550.6,258.5 	"/>
	<polygon class="st6" points="509.1,222.2 510.6,219.7 543.1,215.9 550.6,258.5 520.4,263.8 517.7,262.3 	"/>
	<polygon class="st6" points="383.3,240.5 393.5,238.2 396.8,252.5 397.9,257 387.6,259.4 385.8,251.5 	"/>
	<polygon class="st6" points="166.5,179.1 177.7,176.2 181.5,190.6 170.4,193.5 	"/>
	<polygon class="st6" points="676,199.9 686.8,198.8 687.1,210.9 676.4,211.4 	"/>
	<polygon class="st6" points="793.7,547.1 830.3,511.9 838.6,520.6 807.7,550 801.7,555.7 	"/>
	<polygon class="st6" points="605.6,441.5 605.9,432.8 606.1,425.4 617.8,426.3 635,427.6 634.6,433.6 622.4,432.9 622.5,431.5 
		612.5,430.9 611.9,441.9 	"/>
	<polygon class="st6" points="460.4,311.6 472.2,311.3 475.1,311.2 475.4,324.1 473.1,324.2 460.8,324.5 460.7,319 	"/>
	<polygon class="st6" points="472.7,438 472.8,435.7 473.1,430.7 486.9,431.5 486.6,436.3 486.5,438.8 	"/>
	<polygon class="st6" points="435,358.1 467,357.9 467,371.1 460.2,371.2 449.5,371.3 449.7,395.7 460.5,395.6 474.6,395.5 
		474.6,408.3 470,408.4 470,409.9 435.3,410 	"/>
	<polygon class="st6" points="321.6,555.6 326,542.7 332.7,544.4 328.8,557.3 	"/>
	<polygon class="st6" points="281.9,343.7 290.1,342.3 291.7,352.6 282.3,353.3 	"/>
	<polygon class="st6" points="163.3,320.1 169.4,317.9 172,326.1 168.6,327.2 170.1,332.1 167,333.1 	"/>
	<polygon class="st6" points="177.9,411.3 185.4,409 190.9,407.4 191.9,411.5 207,408.4 212.3,407.3 215,419.5 200.7,423.4 
		199.1,416.4 190.5,418.4 189.8,414.8 179.2,417.6 	"/>
	<polygon class="st6" points="659.6,567.3 662,504.2 680.3,505.4 679.4,517.6 683,517.9 682.7,523 698.6,524.7 696.8,541.9 
		694.4,545.2 690.8,546.5 679.4,547.9 678.2,554.9 672,555 670.5,566.6 	"/>
	<polygon class="st6" points="383.3,555.6 385.9,549 403.4,554.2 415.8,555.2 416.3,575.8 407.6,575.1 402.9,574.2 402.8,565.2 
		393.1,563.3 393.5,558.6 390.2,557.9 	"/>
	<polygon class="st6" points="277,269.1 319.5,256.2 321,261.5 325.9,278.4 309.1,283.1 307.8,279 310.8,278.3 309.4,272 306,273.1 
		306.3,275.3 305.7,276.5 304.5,277.5 302.7,277.9 300.9,277.9 299.2,277.1 298,275.8 294.9,276.8 296.6,281.9 297.5,284.8 
		293.4,286.2 294.2,289.1 284.5,292.1 	"/>
	<path class="st6" d="M589.1,277.8l31.3-4.3l3.3,3.7l-1.4,30.5l-2.4,2.6l-28.8-4.9L589.1,277.8z"/>
	<polygon class="st6" points="455.8,469.3 469.8,469.5 469.7,472.9 455.8,472.7 	"/>
	<polygon class="st6" points="719.7,520.4 722.4,513 739.6,521 734.2,531.3 725.6,526.9 727.2,523.6 	"/>
	<polygon class="st6" points="788.1,188.3 806,187.4 808,231.9 808.6,241.7 800.8,242.1 794.5,242.4 791.1,242.5 790.7,234.4 
		799.6,234 798.6,213.2 789.5,213.6 	"/>
	<polygon class="st6" points="32.8,226.6 46.8,224.9 48,236.1 51.9,269.6 38.5,275.4 	"/>
	<polygon class="st6" points="97.7,365.1 105.9,362.7 109.1,375.3 100.4,377.7 98,366.2 	"/>
	<polygon class="st6" points="16.2,374.2 17.6,372 30.2,367.8 44.2,363.1 47.5,372.2 48.2,373.5 25.6,380.9 26.4,386.8 50.9,380.1 
		53.8,390.5 47.5,392.3 33.9,396 23.9,398.7 21.4,397.3 	"/>
	<polygon class="st6" points="115.6,551.6 124.7,548.5 128.1,557.8 119.1,561.1 	"/>
	<polygon class="st6" points="98.5,444 100.2,443.5 117.6,438.9 123.4,437.4 127,450.9 102.1,457.5 	"/>
	<polygon class="st6" points="114.2,537.4 123.2,534.5 125.9,542.6 117.1,545.5 	"/>
	<polygon class="st6" points="123.2,534.5 136.8,529.9 139.5,538.1 125.9,542.6 	"/>
	<polygon class="st6" points="95.3,574.7 101.5,572.3 104.6,571.1 114.1,567.4 116.9,574.7 118.5,579.2 122,588.9 103.6,595 
		100.4,584.9 112.5,581 110.4,574.5 96.5,579.5 	"/>
	<polygon class="st6" points="57.6,476.3 76.8,471.4 79.8,483.5 60.6,488.2 	"/>
	<polygon class="st6" points="494.4,481.4 494.4,480.1 494.5,475.8 501.2,475.6 518.5,475.3 532.8,474.1 534.5,515.5 520.4,516 
		517.6,480.9 	"/>
	<polygon class="st6" points="360.6,502.7 360.7,499.7 360.8,496.6 361.4,484.2 378.7,483.8 377.8,496.2 377.6,498.7 365.2,497.7 
		364.2,502.7 	"/>
	<polygon class="st6" points="330,532.2 330.5,528.6 330.7,521.5 331.2,501 331.3,493.8 331.6,484.9 349.2,484.5 348.9,499.3 
		348.9,501.4 348.3,527.9 348.3,532.5 	"/>
	<polygon class="st6" points="374.9,337.8 380.1,337.6 379.5,319.5 391.4,319.1 392.1,339.6 394.9,339.5 395.3,350.9 375.4,350.8 
		375.1,341.5 	"/>
	<polygon class="st6" points="239.1,531.7 245.8,529.9 248.6,538.9 249.3,541.1 252.7,552.2 241.1,554.2 239.5,548.4 238.8,545.7 
		242.9,544.8 242.3,542.7 241.9,541.5 	"/>
	<polygon class="st6" points="436.2,575.8 438.3,572.7 449.2,572.2 457.4,571.9 468.6,571.5 470.5,585.6 450.5,588 436.9,589.6 
		436.5,588 438,586.4 437.4,578.4 	"/>
	<polygon class="st6" points="217.3,542.4 222.4,541.2 223.8,548.1 235.6,545.5 233.4,538.6 224.7,540.6 222.8,533.4 230.2,531.8 
		231.5,531.6 234.6,530.8 235.1,532.8 238.8,545.7 239.5,548.4 241.1,554.2 231.9,555.7 219.4,557.9 218.6,551.5 	"/>
	<polygon class="st6" points="127.2,338.5 130.6,337.6 129.4,332.3 135.3,330.2 152.8,323.9 155.9,335 159.7,348.4 162.4,357.7 
		138.1,364.9 137.4,362.3 134.1,363.4 128.9,344.4 	"/>
	<polygon class="st6" points="297,487.9 299.3,485.6 312.3,485.3 313.3,493.1 314.1,499.9 307.1,500.5 306.8,509.8 298.6,510.2 
		297.8,499.7 	"/>
	<polygon class="st6" points="807.7,550 838.6,520.6 845.5,559.6 843.4,563.4 816.9,569.5 812.4,566.7 	"/>
	<polygon class="st6" points="464.5,226.6 490.7,222.1 495.1,221.3 503.2,267.5 500.9,267.9 474.4,272.5 471.4,255.2 483.1,253.1 
		480.5,238.2 466.9,240.5 466.7,239.1 	"/>
	<polygon class="st6" points="679.4,517.6 680.3,505.4 711.2,509.2 709.1,515.6 706.1,522.9 701.8,522.5 701.4,525 698.6,524.7 
		682.7,523 683,517.9 	"/>
	<polygon class="st6" points="614.4,476.8 614.5,473.4 620.9,473.6 632.1,474 631.7,479.6 621.3,479.3 621.4,477 	"/>
	<polygon class="st6" points="508.8,580.9 509.4,571.9 509.7,570.3 514.3,570.5 516.3,559.1 521.2,559.6 520.5,564.7 519.4,571.4 
		519,581.1 	"/>
	<polygon class="st6" points="508.3,437 516.5,436.3 515.6,426.1 518.2,426.4 525.9,424.9 529.1,447.6 522.4,448.2 509.4,449.3 
		508.9,443.7 	"/>
	<polygon class="st6" points="320.2,541.1 320.6,540 324.6,528.3 330.5,528.6 330,532.2 326,542.7 	"/>
	<polygon class="st6" points="538.5,438.4 555.5,435.9 559.4,435.4 559.5,441.4 548,443.4 548.5,452.7 541,453.2 	"/>
	<path class="st6" d="M169.8,472.1l1.2-2.6l49.9-12l3.3,3.6l11.9,41l-1.7,2.8l-46,15.9l-2.3-1.5L169.8,472.1z"/>
	<path class="st6" d="M292.1,325l2.3-3.1l38.9-11.4l2.9,1.9l7.5,33.9l-0.5,2.1l-1.7,1.4l-2,0.2l-2.3-1.7l-16.2-0.5l-16.5-0.5
		l-1.2,1.6l-1.3,0.3l-1.9-0.1l-1.6-0.5l-0.6-1.8L292.1,325z"/>
	<polygon class="st6" points="100,217.2 110.8,212.9 121.5,239.5 110.7,243.8 	"/>
	<polygon class="st6" points="114.1,567.4 128.8,561.7 131.4,569.3 128.3,570.4 116.9,574.7 	"/>
	<polygon class="st6" points="84.7,562 89.7,560.3 92.6,568.4 87.7,570.2 	"/>
	<polygon class="st6" points="97.8,512.7 105.9,510.6 108.1,519.9 108.7,522.3 101,524.4 	"/>
	<polygon class="st6" points="71.9,506 78.3,504.4 80.5,513.2 82,519.3 75.5,520.9 	"/>
	<polygon class="st6" points="98.8,485.2 110.5,482.7 123.1,480 126.2,493.9 130.8,514.9 108.1,519.9 105.9,510.6 105.4,508.6 
		116.5,506.1 119.1,505.5 117,496.2 116,491.9 112.3,492.8 112.7,494.7 106.8,496 101.6,497.1 101.1,494.5 	"/>
	<polygon class="st6" points="87.7,487.9 98.8,485.2 101.1,494.5 96.1,495.8 99.7,510.3 94.8,511.5 	"/>
	<polygon class="st6" points="33.8,460.3 45.1,458.1 50,478.3 57.6,476.3 60.6,488.2 58.4,488.7 44.1,492.2 41.1,490.1 36.4,470.8 	
		"/>
	<polygon class="st6" points="77.4,424.9 88.8,421.7 87.8,417 93.1,415.2 98.9,438.4 100.2,443.5 98.5,444 83.6,448 	"/>
	<polygon class="st6" points="694.9,324.6 696.4,275.3 721.3,276 719.8,325.4 	"/>
	<polygon class="st6" points="373.5,267 375.9,266.5 374.9,261.6 383.5,259.7 385.6,269.7 381.9,270.4 383.1,276 387,275.2 
		389.7,287.6 378.4,290 374.6,272.3 	"/>
	<polygon class="st6" points="549.3,286.2 551,283.1 589.1,277.8 591,305.3 553.6,304 551.4,302.2 	"/>
	<polygon class="st6" points="844.1,229.1 864.8,228.5 874.8,228.3 875.1,238.7 844.5,240.2 	"/>
	<polygon class="st6" points="312.8,61.2 358.8,49.7 356.4,40.4 348.9,42.2 347.4,36.5 355,34.6 352.8,25.6 350.9,18.2 343.2,20.1 
		342,15.3 349.7,13.3 349.2,11.1 365.7,7 366.4,9.9 373.7,8.1 375,13.2 367.7,15.1 369.2,21.4 371.6,30.8 379.7,28.7 381.1,34.2 
		372.9,36.2 378.5,59.1 383,76.8 387.3,93.9 391.4,110.5 393.6,119.1 498.1,92.9 504.2,116.5 493.4,119.3 490.2,107.1 388.8,132.4 
		370.2,137.1 370.5,138.2 366,139.4 361.6,140.4 361.3,139.3 326.4,147.9 319.9,122 312.4,92.2 322.6,89.6 320.7,82.2 318.2,82.8 
		316,73.9 	"/>
	<polygon class="st6" points="121.5,129 126.5,126.2 127.3,127.7 122.3,130.4 	"/>
	<polygon class="st6" points="86.9,112 92.4,110.4 92.9,112 87.4,113.5 	"/>
	<polygon class="st6" points="438.5,556.2 456.6,555.4 468,555 468.6,571.5 457.4,571.9 449.2,572.2 438.3,572.7 	"/>
	<polygon class="st6" points="396.6,508.7 397.4,497.6 398.3,483.4 421,482.9 420.2,498.7 419.5,510 	"/>
	<polygon class="st6" points="586.5,210.7 608,208.2 614.8,212.9 619.2,248.8 590.8,251.4 589.2,238.4 600.9,237.3 599.3,222.7 
		588,224.4 	"/>
	<polygon class="st6" points="701.6,416.2 705.9,405 713.7,408.4 731.6,416.3 736.5,418.5 732.8,429.2 	"/>
	<polygon class="st6" points="508.3,537.7 520.7,537.6 520.4,516 534.5,515.5 535.8,567 526.5,566.7 520.5,564.7 521.2,559.6 
		521.5,552.6 513.8,553.1 508.4,553.3 	"/>
	<polygon class="st6" points="519,581.1 519.4,571.4 526.2,571.5 526.5,566.7 535.8,567 536,577.7 533.7,581.5 	"/>
	<polygon class="st6" points="91.8,78.5 109.3,54.6 107.5,40.2 121.9,37.7 129.4,87.4 93.3,91.6 	"/>
	<polygon class="st6" points="59.4,225.1 62,224 64.1,229.1 61.7,230.1 	"/>
	<polygon class="st6" points="89.7,560.3 96.4,558.1 99.2,566.1 92.6,568.4 	"/>
	<polygon class="st6" points="49.9,521 59.8,518.1 61.8,524.9 51.9,527.8 	"/>
	<polygon class="st6" points="459.7,291.2 471.4,290.8 472.2,311.3 460.4,311.6 460.3,307.6 	"/>
	<polyline class="st6" points="150.2,68.4 145,70.4 140.1,72.3 144,82.2 154,78.3 150.2,68.4 	"/>
	<polygon class="st6" points="574.3,432.6 593.5,432.7 605.9,432.8 605.6,441.5 605,460.8 595.8,460.7 595.9,454.4 599.4,454.5 
		599.5,441.3 585.4,441.2 585.3,460.7 574.2,460.7 574.2,445.7 574.3,435.2 	"/>
	<polygon class="st6" points="593.5,432.7 593.9,427.3 594.2,423.7 606.1,425.4 605.9,432.8 	"/>
	<polygon class="st6" points="574.6,425.8 575.6,415.6 590.4,417.1 593.6,405.7 577.3,400.5 582.2,383.7 602.6,390.2 598,406.5 
		594.6,418 594.2,423.7 593.9,427.3 	"/>
	<polygon class="st6" points="604.6,466.7 605,460.8 619.1,461.5 632.8,462.2 632.1,474 620.9,473.6 621.2,467.1 613.9,466.8 
		613.8,468.6 610.1,468.4 610.1,467 	"/>
	<polygon class="st6" points="598,406.5 602.6,390.2 610.4,393.3 635.6,418.4 635,427.6 617.8,426.3 617.7,422.3 602.9,408.3 	"/>
	<polygon class="st6" points="679.7,237.2 690.8,236.8 691.1,245.2 680,245.7 	"/>
	<polygon class="st6" points="758.4,280.7 761.8,280.7 761.8,277.3 764.9,277.3 766.9,275.4 766.9,273 770.4,273 770.4,268.8 
		778.3,268.9 778.3,272.6 782.3,272.6 782.3,275.5 784.8,277.1 788.9,277.2 788.9,279.9 792,279.9 791.9,289.5 788.7,289.4 
		788.6,292.8 784.9,292.8 782.8,295.1 782.7,299.5 780.3,299.4 780.3,302 770.7,301.9 770.7,299.6 768,299.6 768,295.9 765,293.5 
		761.7,293.5 761.7,290.3 758.3,290.3 	"/>
	<polygon class="st6" points="621.7,442.7 622.4,432.9 634.6,433.6 634,443.5 	"/>
	<polygon class="st6" points="779,561.3 793.7,547.1 801.7,555.7 802.8,556.9 794.1,566.9 796.6,578.3 783.9,583.2 	"/>
	<polygon class="st6" points="877.2,259.6 888.7,259.6 890.1,293.9 883.9,294.1 883.7,288.5 883.2,272 877.6,272.1 	"/>
	<polygon class="st6" points="883.7,546.3 891.1,545.4 893.4,557.9 885.3,558.9 	"/>
	<polygon class="st6" points="684.7,490.2 690.9,458.4 704.4,461.4 698.3,491.7 	"/>
	<path class="st6" d="M238.2,291l29.8-11.5l12.2,32.8l-1.3,3.3l-20.1,8.2l-5.5-14.2l-2.1,0.8l-3.8-11l-5,2L238.2,291z"/>
	<polygon class="st6" points="230.3,453.8 258.7,452.5 258.6,461.4 244,462.7 245,467.8 234.5,469.9 	"/>
	<polygon class="st6" points="320.2,528 320.6,520.9 323.9,521.1 330.7,521.5 330.5,528.6 324.6,528.3 	"/>
	<polygon class="st6" points="221.5,420.7 238.2,415.8 238.7,420.2 232,421.8 234.9,435.6 240.7,435.1 242.1,446.1 226.9,446.3 	"/>
	<polygon class="st6" points="265.7,432.6 278.3,432.5 278.5,427.5 279.9,427.4 290.8,427.3 290.5,445.5 265.9,445.8 	"/>
	<polygon class="st6" points="238.2,415.8 261.2,410.9 262.7,417.3 253.9,418.2 254.4,430.4 265.7,430.6 265.7,432.6 265.9,445.8 
		242.1,446.1 240.7,435.1 238.7,420.2 	"/>
	<polygon class="st6" points="221.4,527.1 228.8,525.5 230.2,531.8 222.8,533.4 	"/>
	<polygon class="st6" points="307.4,520.2 320.6,520.9 320.2,528 308.2,527.5 	"/>
	<polygon class="st6" points="208,324.4 214.6,321.9 217.6,329.7 228.5,325.5 224.7,315.5 231.3,313 238.6,332 214.8,341.7 	"/>
	<polygon class="st6" points="261.2,410.9 265.8,410.6 266.4,416.9 277.1,417.1 276.7,409.9 291.1,410 290.8,427.3 279.9,427.4 
		279.7,424.3 264.4,424.3 262.7,417.3 	"/>
	<polygon class="st6" points="166.4,370.1 181.2,365.7 184.5,376.7 185.2,379.1 179.4,380.8 178.6,378.2 173.8,379.6 174.9,383.3 
		170.8,384.6 169.8,381.3 	"/>
	<polygon class="st6" points="172.2,398.8 181.6,396.1 185.4,409 177.9,411.3 176.1,411.8 	"/>
	<polygon class="st6" points="334.9,161.5 384.2,147.9 385.7,153.2 336.4,166.7 	"/>
	<polygon class="st6" points="136.8,529.9 143.4,527.8 141.2,521 145.8,519.5 148,526.2 150.6,534.4 139.5,538.1 	"/>
	<polygon class="st6" points="145.2,406.5 153.8,404 158,417.2 149.3,419.8 	"/>
	<polygon class="st6" points="51.9,527.8 61.8,524.9 67.8,523.1 70.5,532.7 65.7,534.2 67.9,542.5 57.6,545.9 	"/>
	<polygon class="st6" points="52.7,456.1 63.4,453.7 69.8,452.3 70.9,457.3 53.9,461.2 	"/>
	<polygon class="st6" points="89.5,580.8 94.4,579.1 96.4,586.2 100.4,584.9 103.6,595 94.5,598.1 91.1,586.1 	"/>
	<polygon class="st6" points="45.8,507.3 54.5,504.7 56.6,511.8 47.9,514.3 	"/>
	<polygon class="st6" points="113.3,463.5 131.3,459.6 133.9,470.9 115.9,475.1 	"/>
	<polygon class="st6" points="72.2,457.1 86.3,453.6 88.7,463.5 74.6,467 	"/>
	<polygon class="st6" points="85,537.1 90.4,535.2 92.9,542.4 105,538.3 108.7,548.6 91,554.6 86.8,542.5 	"/>
	<polygon class="st6" points="76.8,471.4 90.2,468 93.3,480.2 79.8,483.5 	"/>
	<polygon class="st6" points="104.3,536.2 112.7,533.2 114.2,537.4 117.1,545.5 108.7,548.6 105,538.3 	"/>
	<polygon class="st6" points="80.8,563.3 84.7,562 87.7,570.2 83.7,571.6 	"/>
	<polygon class="st6" points="128.8,561.7 136.1,558.9 144.3,581.4 136.5,584 131.4,569.3 	"/>
	<polygon class="st6" points="109.6,553.6 115.6,551.6 119.1,561.1 113.1,563.2 	"/>
	<polygon class="st6" points="62.8,493.9 68.4,492.6 74.3,491.2 76.2,499.2 64.7,501.9 63.1,495.2 	"/>
	<polygon class="st6" points="48.2,373.5 53.6,371.6 56.2,377.1 58.1,376.9 62.7,388.1 53.8,390.5 50.9,380.1 	"/>
	<polygon class="st6" points="44.2,363.1 54.5,359.4 57.8,368.5 47.5,372.2 	"/>
	<polygon class="st6" points="94.2,345.9 102,343.2 109.3,340.7 118.6,372.7 112.3,374.4 109.1,375.3 105.9,362.7 103.3,352.7 
		97.1,354.8 	"/>
	<polygon class="st6" points="65.3,413.9 71.2,411.9 72.9,416.8 67.1,418.8 	"/>
	<polygon class="st6" points="61.8,45.1 78.8,42.9 85.2,92 68.6,94.2 	"/>
	<polygon class="st6" points="117.4,225 131.6,219.1 125.8,205.4 139,199.9 150.3,227 123,238.4 	"/>
	<polygon class="st6" points="154,434.8 174.6,430.1 175.2,433.1 179.9,431.9 182.8,443.9 178.1,445.2 177.1,440.6 166.7,443.4 
		167.7,448 158.8,450.5 	"/>
	<polygon class="st6" points="136.6,378.9 166.4,370.1 169.8,381.3 150.2,388 154.6,403.8 153.8,404 145.2,406.5 	"/>
	<polygon class="st6" points="140.1,72.3 145,70.4 150.2,68.4 154,78.3 144,82.2 	"/>
	<polygon class="st6" points="155,221.6 155.4,220.5 156.3,219.8 157.5,219.5 158.5,219.8 159.4,220.5 160.3,223.7 158.4,224.2 
		155.9,224.9 	"/>
	<polygon class="st6" points="123.1,480 132.1,477.9 135.1,477.2 142.4,475.5 144.8,474.9 153.9,472.8 159.1,471.6 161.5,478.7 
		165.2,490.2 167.1,495.9 169.2,502.1 171.3,508.7 174.8,519.2 176.9,525.6 154.1,533.2 150.6,534.4 148,526.2 151.8,525 
		149.2,516.3 155.3,514.4 157,519.5 161,518.3 151,488.6 126.2,493.9 	"/>
	<polygon class="st6" points="745.9,468.2 747,463.8 750.6,459.1 752.6,456.5 763,464.1 754.6,475 750.9,476.6 747.8,474.6 
		746.2,471.8 	"/>
	<path class="st6" d="M637.4,207.1l2.6-3.5l25.6-2.7l2.1,45.3l-28.8,1.2l-1.2-3.1L637.4,207.1z"/>
	<polygon class="st6" points="879.5,294.4 878.6,350.9 878.5,357.7 866.7,357.1 866.1,399.9 878.4,400.2 878.1,462.6 874.2,462.7 
		874.1,467.9 872.9,467.8 871.2,467.8 870.6,480.6 823,480.3 823.1,468.9 820,468.9 811.7,469.2 794.5,468.8 794,450 788.7,449.7 
		770.2,448.6 770.3,441.9 763.9,442 763.8,440.8 756.3,440.6 756.5,437.7 755.5,437.6 756,427.7 756.5,419.1 757.5,419.2 
		757.6,416.6 757.8,413.9 756.7,413.8 757.2,404.7 757.7,395.2 758.8,395.2 759.1,389.7 758,389.6 758.5,379.5 758.9,370.8 
		760.2,370.8 760.5,365.2 759.2,365.1 759.7,355.8 760.2,346.7 761.5,346.7 762.5,326.9 795.1,326.7 807.8,327.1 812,327.2 
		812.6,296.3 813.2,266.4 834.8,266.9 849.7,279.9 846.9,284.1 846.2,293.6 858.2,293.2 858.4,287.2 869.4,287.2 870,289.3 
		877.7,289 877.8,294.3 	"/>
	<polygon class="st6" points="128.3,570.4 131.4,569.3 136.5,584 133.5,585 	"/>
	<polygon class="st6" points="258.7,452.5 290.3,451.1 289.7,464.5 272.5,464.9 272.5,461 264.5,461.1 263.1,462.8 259.7,462.9 
		258.6,461.4 	"/>
	<polygon class="st6" points="194.3,402.6 210.6,399.1 212.3,407.3 207,408.4 206.1,403.8 195,406.1 	"/>
	<polygon class="st6" points="787.2,170.4 806.1,169.8 806.5,183 787.9,183.6 	"/>
	<polygon class="st6" points="831.2,169.1 865.1,168.1 865.5,183.8 831.5,184.5 831.5,182.2 	"/>
	<polygon class="st6" points="88.4,164.7 133.7,141.6 136.7,159.6 133.6,162.2 136,168.5 137.6,173.8 141.9,191 100.1,209 
		93.3,193.6 95.6,184.1 100.8,181.7 99.4,178.5 95,180.5 	"/>
	<polygon class="st6" points="395.6,299.3 426.6,295 429.3,298.5 432.5,313 423.1,313.5 397.2,315.7 	"/>
	<polygon class="st6" points="158.9,118 169.4,113.8 174,125.6 168.7,127.7 163.6,129.8 159.6,119.7 	"/>
	<polygon class="st6" points="624.3,397.3 626.3,396.4 628.7,401.8 626.7,402.7 	"/>
	<polygon class="st6" points="321.3,492.9 321.7,485.1 331.6,484.9 331.3,493.8 	"/>
	<polygon class="st6" points="383.8,456.1 389.6,455.8 389.4,452.8 395.3,452.6 395.5,456 400.2,455.8 400.5,461.9 395.9,462.1 
		396.1,466.1 389.7,466.4 389.5,462.2 384.1,462.5 	"/>
	<polygon class="st6" points="677.3,566.1 703.1,561.4 706.1,575.5 678.2,581.1 	"/>
	<polygon class="st6" points="648.9,389.4 649.1,384.9 649.2,381.6 653.4,381.8 653.6,375.7 649.7,375.5 650.5,350.4 654,350.7 
		731.9,352.5 732.9,379.9 725.5,379.4 725.6,391.9 711.4,387 705.9,405 701.6,416.2 671.8,403 652.3,394.3 653.1,389.4 	"/>
	<polygon class="st6" points="299.3,520.3 307.4,520.2 308.2,527.5 309.9,541.5 317.5,542.6 318.3,540.3 320.6,540 320.2,541.1 
		326,542.7 321.6,555.6 301.5,550.8 301.4,550.8 300.8,542.2 	"/>
	<polygon class="st6" points="439.1,479.4 454.7,477.8 469.7,478.1 469.7,475.5 481.2,475.6 481.2,480 489.2,480.3 489.9,505.6 
		457.9,505.1 439.2,504.9 	"/>
	<polygon class="st6" points="644,389.6 646,388.7 648.4,394.1 646.4,395 	"/>
	<polygon class="st6" points="569.8,484.4 571,479.2 575.5,472.8 575.5,468.2 588,467.6 596.2,467.2 604.6,466.7 603.7,478.8 
		606.5,478.9 606.3,481.8 606.1,485.4 602.8,485.3 601.7,511.9 596.2,511.9 580.3,511.4 576.7,511.3 576.4,497.8 576.3,491.5 
		573.1,488.7 	"/>
	<polygon class="st6" points="439.2,504.9 457.9,505.1 489.9,505.6 490.8,535.3 458.4,538.9 454.3,539.4 438.7,541.1 438.9,525.6 
		438.9,520.5 439.1,515.3 	"/>
	<polygon class="st6" points="123.1,428.6 137.5,424.1 146.1,446.5 135.6,449.9 131.8,438.4 126.8,440 	"/>
	<polygon class="st6" points="848.8,497.9 851.3,494.5 890.1,489.2 894.1,491.7 902.9,538.9 890.2,540.4 883.5,503.9 864.7,506.2 
		872.2,543.7 858.7,545.8 	"/>
	<polygon class="st6" points="655.7,281.8 680.2,282.5 679,324.3 654.6,323.7 	"/>
	<polygon class="st6" points="309.1,283.1 325.9,278.4 331.6,297.6 331.6,299.1 331,301 329.3,301.8 316.3,305.7 313.4,296.5 
		323.1,293.7 320.8,285.9 310.8,288.5 	"/>
	<polygon class="st6" points="239.5,127.1 248.1,124.9 244.3,110.1 276.1,102.1 279.6,115.8 277.7,116.3 282.7,135.9 284.5,135.4 
		296.7,183.2 275.6,188.5 278.1,198.2 258.8,203.1 254,184 262.8,181.8 254.4,148.8 245.5,151 	"/>
	<polygon class="st6" points="831.1,211.5 837.6,211.3 838.3,229.2 844.1,229.1 844.5,240.2 832.1,240.6 	"/>
	<polygon class="st6" points="396.8,144.6 461.9,127.6 463.4,133.1 398.2,150.2 	"/>
	<path class="st6" d="M393.5,238.2L421,232l10.1,46.9l-28.6,6l-2.7-12.5l-0.5-2.4l2.9-0.6l-3.7-17.2l-1.6,0.3L393.5,238.2z"/>
	<path class="st6" d="M748.3,192.7l14.3-0.6l-0.3-7.6l25.6-1l0.3,4.6l1.4,25.3l1.1,20.8l0.4,8.1l-14.9,0.7l-25.7,1.2L748.3,192.7z"
		/>
	<polygon class="st6" points="705.9,405 711.4,387 725.6,391.9 734.8,395.2 732.2,402.8 729.7,402.8 729.2,404.8 725.3,404.2 
		724,405.9 716.5,403.1 713.7,408.4 	"/>
	<polygon class="st6" points="357.7,568 362.4,556.6 380.1,563.8 375.7,574.9 	"/>
	<polygon class="st6" points="147.6,540.8 170,533.2 174.4,545.9 160.2,550.8 164.6,563.4 156.6,566.2 153.3,556.9 	"/>
	<polygon class="st6" points="217.5,401.3 231.6,398.1 234.3,397.5 238.2,415.8 221.5,420.7 	"/>
	<polygon class="st6" points="230.2,310.3 237.2,307.6 237.7,308.8 240.7,307.6 243.5,314.8 249.5,312.5 249,311.2 251.1,310.4 
		253.2,309.5 258.8,323.8 238.6,332 231.3,313 	"/>
	<polygon class="st6" points="234.5,469.9 245,467.8 249,467 250.5,469.3 250,471.7 248,472.8 248.3,476.2 250.4,476.3 251,478.4 
		249.1,479.9 250.4,484.9 253.6,486.3 257,485 256.9,481.8 257.6,479.8 259.5,479.5 260.6,480.9 260.8,483.4 273.7,478.3 
		274.2,470.4 269.5,470.8 268.2,472 266.1,471.3 265.5,468.3 266.3,466.2 268.5,465 272.5,464.9 289.7,464.5 288.8,483.5 
		287.2,486.9 242.9,502.8 	"/>
	<polygon class="st6" points="46.8,224.9 49.7,224.4 53.9,233.6 48,236.1 	"/>
	<polygon class="st6" points="48.4,221.5 56.2,218 59.4,225.1 61.7,230.1 53.9,233.6 49.7,224.4 	"/>
	<polygon class="st6" points="62,224 71.4,219.9 86.5,254.7 77.2,259 64.1,229.1 	"/>
	<polygon class="st6" points="47.9,514.3 56.6,511.8 57.8,511.4 59.8,518.1 49.9,521 	"/>
	<polygon class="st6" points="28.7,439.3 45.4,435.5 56.4,433.1 71,429.8 76.2,450.9 69.8,452.3 63.4,453.7 61.7,445.5 60.7,440.6 
		60.1,437.9 46.8,440.8 41.7,441.9 44.5,453.1 48.7,452.2 49.3,457 45.1,458.1 33.8,460.3 31.3,450.2 	"/>
	<path class="st6" d="M460.2,371.2l6.8,0l-0.1-13.2l41.7-0.3l12.4,50.1l-46.4,0.6l-0.1-12.8l-14,0.1L460.2,371.2z"/>
	<polygon class="st6" points="515.2,410.7 523.7,409.1 525.9,424.9 518.2,426.4 	"/>
	<polygon class="st6" points="531.8,402 540.9,400.6 545.3,400.8 548.6,401 552.2,419.5 555.5,435.9 538.5,438.4 	"/>
	<path class="st6" d="M468,555l40.5-1.7l5.4-0.2l-4.1,17.2l-0.4,1.5l-0.5,9l-38.4,4.7l-1.9-14.1L468,555z"/>
	<polygon class="st6" points="541.7,463 550.1,462.4 550.1,466.9 550.1,469.6 575.5,468.2 575.5,472.8 571,479.2 569.8,484.4 
		567.5,484.5 567.7,488.1 566.9,489.8 564.3,491 561.8,490.7 559.4,489 559.9,504.1 568.4,504.1 568.6,498.2 576.4,497.8 
		576.7,511.3 556.8,510.8 545.4,510.5 542.1,467.2 	"/>
	<polygon class="st6" points="759.6,526.1 781.1,504.9 781.4,495.4 777.4,492.5 786.3,480.9 798.6,489.8 799.4,508 771.5,536.9 	"/>
	<polygon class="st6" points="703.1,561.4 734.9,550.5 741.3,564 706.1,575.5 	"/>
	<polygon class="st6" points="298.6,510.2 306.8,509.8 307,512 307.4,520.2 299.3,520.3 298.7,512.2 	"/>
	<polygon class="st6" points="873.4,549.6 879,548.8 878.7,546.9 883.7,546.3 885.3,558.9 875.5,560.1 	"/>
	<polygon class="st6" points="883.7,288.5 877.7,289 870,289.3 869.4,287.2 858.4,287.2 858.2,293.2 846.2,293.6 846.9,284.1 
		849.7,279.9 834.8,266.9 813.2,266.4 810.4,262.1 812.1,260.3 814.2,258.4 817.5,259.8 820.6,259.8 841,259.7 857.5,259.7 
		857.7,267 873.5,267 873.7,272.3 877.6,272.2 883.2,272 	"/>
	<polygon class="st6" points="192.2,163.9 192.8,162.1 194,161.1 195.5,160.7 197.2,161 198.4,162.1 201.4,173.9 195.3,175.5 
		193.5,168.8 	"/>
	<path class="st6" d="M284.5,292.1l9.6-3l-0.8-3l4.1-1.3l-0.9-2.9l11.2-2.9l1.3,4l1.7,5.4l2.6,8l3,9.2l-3.9,1.2l-18.8,5.5l-2.9-1.7
		L284.5,292.1z"/>
	<polygon class="st6" points="407.6,575.1 416.3,575.8 416.6,589.1 412.3,589 408.8,578.8 	"/>
	<polygon class="st6" points="371.1,302.7 395.6,299.3 397.2,315.7 390.8,316.4 390.4,312.2 378.8,313.4 379.2,316.8 372.6,317.3 	
		"/>
	<polygon class="st6" points="387,275.2 399.8,272.4 402.5,285 389.7,287.6 	"/>
	<polygon class="st6" points="436.6,199.5 437.9,197.8 441,197.2 443.3,198.7 443.7,202.7 442.3,204.2 439.3,204.8 437.2,203.5 	"/>
	<polygon class="st6" points="181.2,365.7 192.7,362.3 202.2,359.5 208.5,390 196.2,391.3 192.9,374.7 184.5,376.7 	"/>
	<polygon class="st6" points="481.2,472.4 482,471.6 482.5,470.6 482.6,469.5 482.5,460.4 494.2,460.4 494.5,472.2 	"/>
</g>
<g id="huset">
	<polygon class="st7" points="524.2,322.4 543.2,322.2 543.1,315.5 557,315.4 557.1,322 571.9,322 586.6,321.8 588.3,320.1 
		591.8,320.1 594,322.4 594,324 597.5,324 599.8,326.3 599.8,329.8 598.9,330.6 600.7,332.5 600.7,336 599,337.7 599.9,338.6 
		599.9,342.1 597.7,344.2 594.1,344.3 594.1,346 591.9,348.2 588.4,348.3 586.3,346.6 574.8,346.7 574.9,353.3 561,353.3 
		560.9,346.8 536.3,347 536.3,340.7 524.3,340.8 	"/>
</g>
</svg>
